<svg width="143" height="143" viewBox="0 0 143 143" fill="none" xmlns="http://www.w3.org/2000/svg">
<mask id="mask0_4472_54984" style="mask-type:alpha" maskUnits="userSpaceOnUse" x="0" y="0" width="143" height="143">
<circle cx="71.4742" cy="71.2792" r="70.775" fill="#D9D9D9"/>
</mask>
<g mask="url(#mask0_4472_54984)">
<circle cx="71.4742" cy="71.2792" r="70.3" fill="white" stroke="#BA9E49" stroke-width="0.95"/>
</g>
<path d="M50.4022 87.9702C47.0881 87.9702 44.3926 90.6541 44.3926 93.9538C44.3926 97.2535 47.0881 99.9374 50.4022 99.9374C53.7162 99.9374 56.4117 97.2535 56.4117 93.9538C56.4117 90.6541 53.7162 87.9702 50.4022 87.9702ZM50.4022 96.7792C48.8392 96.7792 47.5645 95.51 47.5645 93.9538C47.5645 92.3976 48.8392 91.1285 50.4022 91.1285C51.9651 91.1285 53.2398 92.3976 53.2398 93.9538C53.2398 95.51 51.9651 96.7792 50.4022 96.7792Z" fill="#122939"/>
<path d="M75.5482 87.9702C72.2341 87.9702 69.5386 90.6541 69.5386 93.9538C69.5386 97.2535 72.2341 99.9374 75.5482 99.9374C78.8622 99.9374 81.5577 97.2535 81.5577 93.9538C81.5577 90.6541 78.8622 87.9702 75.5482 87.9702ZM78.3858 93.9538C78.3858 95.51 77.1111 96.7792 75.5482 96.7792C73.9852 96.7792 72.7105 95.51 72.7105 93.9538C72.7105 92.3976 73.9852 91.1285 75.5482 91.1285C77.1111 91.1285 78.3858 92.3976 78.3858 93.9538Z" fill="#122939"/>
<path d="M37.9314 87.9705H37.8352C36.9576 87.9705 36.0967 88.1703 35.3194 88.5572V85.037C35.3194 84.4877 34.8681 84.0383 34.3164 84.0383H33.1505C32.5988 84.0383 32.1475 84.4877 32.1475 85.037V98.9391C32.1475 99.4883 32.5988 99.9377 33.1505 99.9377H34.3164C34.8681 99.9377 35.3194 99.4883 35.3194 98.9391V93.7336C35.3194 92.3979 36.3182 91.2577 37.5929 91.1412C37.6764 91.1329 37.7558 91.1288 37.8394 91.1288C39.2269 91.1288 40.3553 92.2522 40.3553 93.6337V98.9391C40.3553 99.4883 40.8066 99.9377 41.3582 99.9377H42.5242C43.0759 99.9377 43.5272 99.4883 43.5272 98.9391V93.7585C43.5272 90.617 41.0156 88.0205 37.9314 87.9664" fill="#122939"/>
<path d="M50.4022 99.0888C47.5562 99.0888 45.2451 96.7836 45.2451 93.9541C45.2451 91.1246 47.5603 88.8193 50.4022 88.8193C53.244 88.8193 55.5592 91.1246 55.5592 93.9541C55.5592 96.7836 53.244 99.0888 50.4022 99.0888ZM50.4022 90.2799C48.3669 90.2799 46.712 91.9276 46.712 93.9541C46.712 95.9805 48.3669 97.6283 50.4022 97.6283C52.4374 97.6283 54.0923 95.9805 54.0923 93.9541C54.0923 91.9276 52.4374 90.2799 50.4022 90.2799Z" fill="white"/>
<path d="M75.5481 99.0888C72.7022 99.0888 70.3911 96.7836 70.3911 93.9541C70.3911 91.1246 72.7063 88.8193 75.5481 88.8193C78.39 88.8193 80.7052 91.1246 80.7052 93.9541C80.7052 96.7836 78.39 99.0888 75.5481 99.0888ZM75.5481 90.2799C73.5129 90.2799 71.858 91.9276 71.858 93.9541C71.858 95.9805 73.5129 97.6283 75.5481 97.6283C77.5834 97.6283 79.2383 95.9805 79.2383 93.9541C79.2383 91.9276 77.5834 90.2799 75.5481 90.2799Z" fill="white"/>
<path d="M37.9188 88.8192C36.5773 88.7984 35.357 89.3226 34.4669 90.184V85.0326C34.4669 84.9494 34.4 84.8828 34.3164 84.8828H33.1504C33.0669 84.8828 33 84.9494 33 85.0326V98.9347C33 99.0179 33.0669 99.0845 33.1504 99.0845H34.3164C34.4 99.0845 34.4669 99.0179 34.4669 98.9347V93.7292C34.4669 91.9816 35.7666 90.4545 37.5135 90.2922C39.5153 90.1049 41.2078 91.6736 41.2078 93.6293V98.9347C41.2078 99.0179 41.2747 99.0845 41.3582 99.0845H42.5242C42.6078 99.0845 42.6747 99.0179 42.6747 98.9347V93.7542C42.6747 91.1036 40.5809 88.8566 37.9188 88.8108" fill="white"/>
<path d="M31.1317 95.2232C30.9729 94.9943 30.7096 94.8612 30.4337 94.8612H28.829C28.5197 94.8612 28.2314 95.0318 28.0809 95.3022C27.5084 96.3467 26.3716 96.9167 25.189 96.7503C23.9352 96.5755 22.9197 95.5436 22.7776 94.2869C22.6815 93.4672 22.9322 92.6808 23.4797 92.0733C24.0188 91.4699 24.7919 91.1245 25.5985 91.1245C26.6349 91.1245 27.5878 91.6904 28.0851 92.6017C28.2355 92.8722 28.5197 93.0428 28.8331 93.0428H30.4337C30.7096 93.0428 30.9729 92.9055 31.1317 92.6808C31.2905 92.4519 31.3281 92.1648 31.232 91.9027C30.3669 89.5475 28.1018 87.9663 25.5943 87.9663C23.8307 87.9663 22.1633 88.7361 21.0182 90.076C19.8731 91.4117 19.38 93.1843 19.6642 94.9361C20.0695 97.4285 22.3639 99.6089 24.8964 99.896C25.1263 99.921 25.3603 99.9335 25.5901 99.9335C28.1018 99.9335 30.3711 98.3523 31.2361 95.9971C31.3323 95.7391 31.2946 95.4479 31.1358 95.219" fill="#122939"/>
<path d="M28.8254 95.71C28.1234 96.9916 26.6774 97.8155 25.0684 97.5908C23.426 97.3661 22.1138 96.0263 21.9257 94.3868C21.6708 92.169 23.4135 90.2799 25.5908 90.2799C26.9866 90.2799 28.1986 91.058 28.8254 92.1981H30.426C29.7031 90.2299 27.8099 88.8193 25.5866 88.8193C22.4606 88.8193 19.9782 91.5989 20.4965 94.8029C20.8433 96.9459 22.8159 98.81 24.9848 99.0555C27.4631 99.3385 29.6404 97.853 30.426 95.71H28.8213H28.8254Z" fill="white"/>
<path d="M68.7486 95.2232C68.5898 94.9943 68.3265 94.8612 68.0507 94.8612H66.4459C66.1367 94.8612 65.8483 95.0318 65.6979 95.3022C65.1253 96.3467 63.9886 96.9167 62.8059 96.7503C61.5522 96.5755 60.5367 95.5436 60.3946 94.2869C60.2984 93.4672 60.5492 92.6808 61.0925 92.0733C61.6316 91.4699 62.4047 91.1245 63.2113 91.1245C64.2477 91.1245 65.2006 91.6904 65.6979 92.6017C65.8483 92.8722 66.1325 93.0428 66.4459 93.0428H68.0465C68.3224 93.0428 68.5856 92.9055 68.7445 92.6808C68.9033 92.4519 68.9409 92.1648 68.8447 91.9027C67.9797 89.5475 65.7146 87.9663 63.2071 87.9663C61.4435 87.9663 59.7761 88.7361 58.631 90.076C57.4859 91.4117 56.9928 93.1843 57.2769 94.9361C57.6823 97.4285 59.9767 99.6089 62.5092 99.896C62.7391 99.921 62.9731 99.9335 63.2029 99.9335C65.7146 99.9335 67.9839 98.3523 68.8489 95.9971C68.9451 95.7391 68.9074 95.4479 68.7486 95.219" fill="#122939"/>
<path d="M66.4412 95.71C65.7391 96.9916 64.2931 97.8155 62.6841 97.5908C61.0417 97.3661 59.7295 96.0263 59.5414 94.3868C59.2865 92.169 61.0292 90.2799 63.2065 90.2799C64.6024 90.2799 65.8143 91.058 66.4412 92.1981H68.0418C67.3188 90.2299 65.4256 88.8193 63.2023 88.8193C60.0764 88.8193 57.594 91.5989 58.1122 94.8029C58.459 96.9459 60.4316 98.81 62.6006 99.0555C65.0788 99.3385 67.2561 97.853 68.0418 95.71H66.437H66.4412Z" fill="white"/>
<path d="M91.884 55.9385C90.1372 54.4488 88.1813 55.8428 87.3455 56.7083C86.4177 57.6653 85.3646 59.9289 82.6816 60.4824C80.4291 60.9484 77.4786 60.1744 76.3753 56.5668C75.5562 53.8954 77.1108 49.5138 82.0631 49.6095C86.05 49.6886 89.013 50.475 89.5855 47.3959C90.1999 44.092 84.3365 41.9199 81.0392 41.9199C77.9508 41.9199 73.9389 42.1197 70.2571 45.1198L70.0523 45.2862C69.1413 44.3666 68.4893 44.1627 67.6953 43.9796C66.2117 43.6343 64.6487 43.9172 63.6791 45.3029L63.6875 45.3486C61.832 44.4166 59.5376 45.2821 58.7854 47.2877L58.8021 47.4292C58.1 46.9257 57.3729 46.6344 56.6917 46.5262C54.3179 46.1475 50.7364 48.4528 49.7292 54.7193C48.7221 60.9859 50.4731 68.9043 55.509 74.4177C60.5448 79.9353 69.1789 81.4707 74.7204 80.0934C80.2619 78.7161 83.4715 75.7035 85.118 74.064C87.8386 71.3552 90.4088 67.7268 92.1808 62.9041C93.1002 60.4075 93.4011 57.2326 91.8799 55.9343" fill="#FFEB00"/>
<path d="M62.7427 68.5842C62.7427 67.6855 63.474 66.9573 64.3767 66.9573C65.2794 66.9573 66.0107 67.6855 66.0107 68.5842C66.0107 69.483 65.2794 70.2112 64.3767 70.2112C63.474 70.2112 62.7427 69.483 62.7427 68.5842Z" fill="#122939"/>
<path d="M74.3945 68.5842C74.3945 67.6855 75.1259 66.9573 76.0286 66.9573C76.9313 66.9573 77.6626 67.6855 77.6626 68.5842C77.6626 69.483 76.9313 70.2112 76.0286 70.2112C75.1259 70.2112 74.3945 69.483 74.3945 68.5842Z" fill="#122939"/>
<path d="M70.2193 76.2611C68.0503 76.2611 66.7422 74.9254 66.6879 74.8671C66.4246 74.5967 66.4372 74.1639 66.7088 73.9018C66.9804 73.6438 67.4151 73.6521 67.6742 73.9226C67.7202 73.9725 68.6605 74.9004 70.2193 74.9004C71.7781 74.9004 72.7226 73.9434 72.7309 73.9309C72.99 73.6563 73.4247 73.6396 73.7005 73.8976C73.9763 74.1556 73.993 74.5884 73.7339 74.863C73.6796 74.9212 72.3966 76.2611 70.2234 76.2611" fill="#122939"/>
<path d="M92.331 55.4434C90.4337 53.8248 88.1937 54.8692 86.8522 56.2548C86.6265 56.4837 86.4009 56.775 86.1585 57.0787C85.3185 58.1398 84.2779 59.4547 82.414 59.8417C80.4163 60.2536 77.8754 59.3257 77.0062 56.3131C76.6593 55.1147 76.8181 53.184 77.9841 51.7817C78.9119 50.6666 80.2993 50.1547 81.9961 50.3087C86.4343 50.7082 89.8612 50.7539 90.2624 47.5C90.3836 46.5138 90.0952 45.5818 89.4015 44.7329C87.6044 42.5359 83.4462 41.4498 81.0892 41.2584C76.6928 40.9006 73.0193 41.8951 69.8808 44.2835C69.0533 43.6968 68.3053 43.4388 67.8414 43.3306C66.0611 42.9145 64.4814 43.3514 63.4324 44.5248C62.63 44.1878 61.7649 44.1295 60.9207 44.3751C59.8634 44.6788 58.99 45.4153 58.4342 46.4264C57.8825 46.1393 57.3267 45.9562 56.7876 45.873C55.2622 45.6275 53.5906 46.285 52.1989 47.6664C51.0915 48.7691 49.6413 50.8746 49.0395 54.632C47.8986 61.7391 50.2347 69.695 54.9948 74.9088C59.036 79.3362 65.2796 81.2836 70.5536 81.2836C72.1083 81.2836 73.5793 81.113 74.8874 80.7884C80.8217 79.3112 84.1107 76.0365 85.5149 74.6384C88.7621 71.4011 91.2277 67.5438 92.8367 63.1622C93.7812 60.599 94.2158 57.033 92.3394 55.4393M67.5363 44.658C67.9542 44.7537 68.6605 45.0075 69.4336 45.6483C69.4503 45.6608 69.4629 45.6733 69.4796 45.6858C70.353 46.4264 71.3017 47.6664 72.0121 49.747C73.2617 53.4212 72.685 57.2951 71.8993 58.7556C71.0677 60.3077 69.4671 61.0817 67.6867 60.8486C68.3805 59.3798 68.7482 57.4574 68.7482 55.1522C68.7482 51.8733 67.3273 47.4958 64.6193 45.2614C65.5596 44.3792 66.8175 44.4916 67.5363 44.658ZM61.3094 45.6816C62.0658 45.4611 62.864 45.6275 63.5494 46.1435C65.4551 47.5749 67.3817 51.1326 67.3817 55.1522C67.3817 57.2785 66.9888 62.2801 63.3321 62.7711C62.6049 62.8668 62.0115 62.6587 61.6228 62.4465C62.5757 61.0068 63.0312 58.893 62.9769 56.13C62.8891 51.5362 61.3888 48.6984 59.5793 47.1879C59.9596 46.4348 60.5739 45.898 61.3136 45.6816M91.5579 62.6962C90.02 66.8863 87.6629 70.5813 84.5537 73.6772C83.2289 74.9962 80.128 78.0837 74.5614 79.4693C69.2079 80.8009 60.8915 79.3362 56.0145 73.9934C51.5261 69.075 49.3195 61.5602 50.3977 54.8484C50.9452 51.453 52.2115 49.593 53.1768 48.6276C54.2383 47.5707 55.5088 47.0423 56.5828 47.2129C58.8312 47.5707 61.4975 50.1298 61.6145 56.1508C61.673 59.2342 61.021 61.427 59.7255 62.4923C59.1028 63.0041 58.4133 63.1872 57.7864 63.2121C57.4103 63.2204 57.0551 63.1788 56.75 63.1164C55.8389 62.9333 55.0867 62.1511 54.7315 61.0192C54.3219 59.7002 54.5685 58.3229 55.3625 57.5073C55.6258 57.2369 55.6174 56.8041 55.3458 56.542C55.0742 56.2798 54.6395 56.2881 54.3804 56.5586C53.2437 57.7279 52.8718 59.6336 53.4276 61.4229C53.9291 63.0332 55.0658 64.165 56.4742 64.448C56.4742 64.448 56.4742 64.448 56.4783 64.448C56.8545 64.527 57.2264 64.5645 57.5858 64.5686C58.756 64.5894 59.8007 64.2441 60.6491 63.5408C60.67 63.52 60.6951 63.4992 60.716 63.4784C61.1966 63.7822 61.9781 64.1442 62.9685 64.1442C63.144 64.1442 63.3279 64.1317 63.5118 64.1068C64.9202 63.9195 66.0736 63.2246 66.9345 62.0886C67.39 62.1885 67.8414 62.2384 68.2844 62.2384C70.3112 62.2384 72.1333 61.2023 73.1071 59.384C74.1978 57.345 74.5739 53.0134 73.3077 49.2934C72.6557 47.3835 71.8032 46.0769 70.9423 45.1823C73.7548 43.1267 77.048 42.2779 80.9889 42.5983C83.5465 42.8063 86.9985 43.9215 88.3525 45.5734C88.808 46.131 88.9919 46.7011 88.9167 47.3128C88.7077 49.0229 87.1865 49.385 82.134 48.9314C79.3966 48.6859 77.8002 49.8635 76.9435 50.8954C75.4557 52.6847 75.251 55.0856 75.7065 56.671C76.2122 58.4228 77.2319 59.7626 78.6611 60.5491C79.8772 61.219 81.3483 61.4395 82.7065 61.1566C85.0552 60.6697 86.3716 59.0053 87.245 57.9026C87.4749 57.6114 87.6713 57.3659 87.8468 57.1828C88.0809 56.9414 88.7077 56.3547 89.5018 56.0884C90.2373 55.8429 90.8725 55.9636 91.4534 56.4587C92.6486 57.4782 92.4062 60.3576 91.5537 62.6795" fill="#122939"/>
<path d="M102.733 84.4293C99.1262 84.371 96.1758 87.4003 96.1758 90.9913V99.5672C96.1758 99.7336 96.3137 99.871 96.4809 99.871H98.0271C98.1943 99.871 98.3322 99.7378 98.3322 99.5672V95.1731H106.924V99.5672C106.924 99.7336 107.062 99.871 107.23 99.871H108.776C108.943 99.871 109.081 99.7378 109.081 99.5672V90.8456C109.081 87.342 106.247 84.4875 102.745 84.4293M98.3406 93.0343V90.8456C98.3406 88.4863 100.267 86.5681 102.637 86.5681C105.006 86.5681 106.933 88.4863 106.933 90.8456V93.0343H98.3406Z" fill="#122939"/>
<path d="M117.481 84.8579H111.5C111.25 84.8579 111.045 85.0618 111.045 85.3115V99.5714C111.045 99.7378 111.179 99.8751 111.346 99.8751H112.892C113.059 99.8751 113.197 99.742 113.197 99.5714V95.1773H117.606C120.527 95.1773 122.897 92.7556 122.784 89.8179C122.68 87.0258 120.285 84.8579 117.481 84.8579ZM117.606 93.0344H113.197V87.0008H117.606C119.278 87.0008 120.636 88.3532 120.636 90.0176C120.636 91.682 119.278 93.0344 117.606 93.0344Z" fill="#122939"/>
<path d="M82.9614 99.5673V97.9611C82.9614 97.8904 82.9865 97.8238 83.0283 97.7697L91.4576 87.3338H83.2665C83.0993 87.3338 82.9614 87.1965 82.9614 87.03V85.5279C82.9614 85.3614 83.0993 85.2241 83.2665 85.2241H93.9483C94.1155 85.2241 94.2534 85.3614 94.2534 85.5279V87.134C94.2534 87.2048 94.2283 87.2714 94.1865 87.3255L85.7573 97.7614H93.9483C94.1155 97.7614 94.2534 97.8987 94.2534 98.0651V99.5673C94.2534 99.7337 94.1197 99.871 93.9483 99.871H83.2665C83.0993 99.871 82.9614 99.7337 82.9614 99.5673Z" fill="#122939"/>
</svg>
