<svg width="65" height="65" viewBox="0 0 65 65" fill="none" xmlns="http://www.w3.org/2000/svg">
<path d="M32.8023 34.0697C29.9428 34.0697 27.9151 31.5914 27.6032 28.2639C27.3085 31.6087 25.2635 34.0697 22.404 34.0697C19.5444 34.0697 17.4994 31.886 17.2048 28.2639C16.8582 31.886 14.8651 34.0697 12.0056 34.0697C10.5496 33.9803 9.18743 33.3207 8.21427 32.234C7.2411 31.1473 6.73528 29.721 6.80641 28.2639L11.607 8.19507H53.9284L58.7983 28.2639C58.8694 29.721 58.3636 31.1473 57.3904 32.234C56.4173 33.3207 55.0551 33.9803 53.5991 34.0697C50.7395 34.0697 48.7119 31.5914 48.3999 28.2639C48.0706 31.5741 46.0603 34.0697 43.2007 34.0697C40.3412 34.0697 38.3135 31.5394 38.0015 28.2639C37.7069 31.5914 35.6619 34.0697 32.8023 34.0697Z" stroke="#212121" stroke-width="1.92" stroke-linecap="round" stroke-linejoin="round"/>
<path d="M11.4858 41.2617V54.9355H26.7715V49.7364C26.7715 45.5943 29.4404 42.6828 32.8892 42.6828C36.338 42.6828 38.7123 45.421 38.7123 49.615V54.9355H54.1192V34.1388" stroke="#212121" stroke-width="1.92" stroke-linecap="round" stroke-linejoin="round"/>
</svg>
