<svg width="65" height="65" viewBox="0 0 65 65" fill="none" xmlns="http://www.w3.org/2000/svg">
<g clip-path="url(#clip0_4472_54934)">
<path fill-rule="evenodd" clip-rule="evenodd" d="M32.3444 4.67628C33.4275 4.13471 34.5342 4.07958 36.4806 4.72837C36.954 4.8862 37.8042 5.10478 38.8201 5.36601L38.8201 5.36601C39.0124 5.41545 39.2106 5.46641 39.4133 5.51878C40.7151 5.85507 42.2633 6.26375 43.8073 6.73551C45.3553 7.2085 46.8741 7.73749 48.1222 8.30949C49.4119 8.90062 50.2576 9.47046 50.6234 9.95824C51.6382 11.3112 52.4818 12.662 53.0677 13.75C53.361 14.2949 53.5835 14.7623 53.7297 15.1228C53.803 15.3035 53.8524 15.446 53.8821 15.5505C53.9007 15.6159 53.9071 15.6511 53.9091 15.662C53.9093 15.6633 53.9095 15.6643 53.9096 15.6649C53.9128 15.7931 53.9414 15.9685 53.9601 16.0832L53.9614 16.0913C53.9888 16.2596 54.0284 16.4853 54.0784 16.7596C54.1786 17.3094 54.3234 18.0712 54.503 18.995C54.8624 20.8434 55.3629 23.3504 55.9284 26.1287C57.0592 31.6839 58.4519 38.3343 59.4974 42.9811C60.1706 45.9729 60.1444 48.2549 59.5233 50.1182C59.3817 50.5428 58.9822 51.2086 58.2939 52.0425C57.6223 52.8563 56.7294 53.766 55.6816 54.6756C53.579 56.5007 50.918 58.2688 48.272 59.2611C42.8105 61.3091 37.3598 61.9823 35.393 61.9823C35.1526 61.9823 34.2263 62.003 32.8535 62.0337L32.853 62.0337L32.8517 62.0337C30.2387 62.0921 26.0096 62.1867 21.8161 62.2434C18.6012 62.2868 15.3944 62.3085 12.9077 62.276C11.6628 62.2598 10.6095 62.2301 9.83004 62.1839C9.59951 62.1702 9.39772 62.1554 9.22518 62.1395V62.1329V62.0863V62.0397V61.9929V61.9459V61.8988V61.8515V61.8041V61.7565V61.7088V61.661V61.613V61.5648V61.5165V61.4681V61.4195V61.3708V61.3219V61.2729V61.2238V61.1745V61.1251V61.0756V61.0259V60.9761V60.9262V60.8761V60.8259V60.7756V60.7251V60.6745V60.6238V60.573V60.522V60.4709V60.4197V60.3684V60.317V60.2654V60.2137V60.1619V60.11V60.058V60.0058V59.9536V59.9012V59.8487V59.7961V59.7435V59.6906V59.6377V59.5847V59.5316V59.4784V59.425V59.3716V59.3181V59.2644V59.2107V59.1568V59.1029V59.0489V58.9948V58.9406V58.8862V58.8318V58.7773V58.7228V58.6681V58.6133V58.5585V58.5035V58.4485V58.3934V58.3382V58.2829V58.2276V58.1721V58.1166V58.061V58.0054V57.9496V57.8938V57.8379V57.7819V57.7259V57.6698V57.6136V57.5573V57.501V57.4446V57.3881V57.3316V57.275V57.2184V57.1616V57.1049V57.048V56.9911V56.9342V56.8771V56.8201V56.7629V56.7057V56.6485V56.5912V56.5339V56.4765V56.419V56.3615V56.304V56.2464V56.1887V56.1311V56.0733V56.0156V55.9577V55.8999V55.842V55.7841V55.7261V55.6681V55.61V55.5519V55.4938V55.4357V55.3775V55.3193V55.261V55.2028V55.1445V55.0861V55.0278V54.9694V54.911V54.8525V54.7941V54.7356V54.6771V54.6186V54.5601V54.5015V54.4429V54.3844V54.3258V54.2671V54.2085V54.1499V54.0912V54.0326V53.9739V53.9152V53.8565V53.7979V53.7392V53.6805V53.6218V53.5631V53.5043V53.4456V53.3869V53.3282V53.2695V53.2108V53.1522V53.0935V53.0348V52.9761V52.9175V52.8588V52.8002V52.7415V52.6829V52.6243V52.5657V52.5072V52.4486V52.3901V52.3316V52.2731V52.2146V52.1561V52.0977V52.0393V51.9809V51.9225V51.8642V51.8059V51.7476V51.6894V51.6311V51.573V51.5148V51.4567V51.3986V51.3405V51.2825V51.2245V51.1666V51.1087V51.0508V50.993V50.9352V50.8775V50.8198V50.7622V50.7046V50.647V50.5895V50.5321V50.4747V50.4173V50.36V50.3028V50.2456V50.1884V50.1313V50.0743V50.0173V49.9604V49.9036V49.8468V49.7901V49.7334V49.6768V49.6203V49.5638V49.5074V49.4511V49.3948V49.3386V49.2825V49.2264V49.1704V49.1145V49.0587V49.0029V48.9472V48.8916V48.8361V48.7807V48.7253V48.67V48.6148V48.5597V48.5047V48.4497V48.3949V48.3401V48.2854V48.2308V48.1763V48.1219V48.0676V48.0133V47.9592V47.9051V47.8512V47.7974V47.7436V47.69V47.6364V47.583V47.5296V47.4764V47.4232V47.3702V47.3173V47.2645V47.2117V47.1591V47.1066V47.0543V47.002V46.9498V46.8978V46.8459V46.794V46.7423V46.6908V46.6393V46.588V46.5367V46.4856V46.4347V46.3838V46.3331V46.2825V46.232V46.1817V46.1315V46.0814V46.0314V45.9816V45.9319V45.8823V45.8329V45.7836V45.7345V45.6855V45.6366V45.5878V45.5392V45.4908V45.4425V45.3943V45.3463V45.2984V45.2507V45.2031V45.1556V45.1084V45.0612V45.0142V44.9674V44.9207V44.8742V44.8278V44.7816V44.7355V44.6896V44.6439V44.5983V44.5529V44.5076V44.4625V44.4176V44.3728V44.3282V44.2838V44.2395V44.1955V44.1515V44.1078V44.0642V44.0208V43.9775V43.9345V43.8916V43.8489V43.8064V43.764V43.7218V43.6798V43.638V43.5964V43.5549V43.5137V43.4726V43.4317V43.391V43.3505V43.3102V43.2701V43.2301V43.1904V43.1508V43.1115V43.0723V43.0333V42.9946V42.956V42.9176V42.8794V42.8415V42.8037V42.7661V42.7288V42.6916V42.6547V42.6179V42.5814V42.5451V42.509V42.4731V42.4374V42.4019V42.3666V42.3316V42.2968V42.2621V42.2277V42.1936V42.1596V42.1259V42.0924V42.0591V42.026V41.9932V41.9605V41.9282V41.896V41.8641V41.8324V41.8009V41.7696V41.7386V41.7079V41.6773V41.647V41.617V41.5871V41.5575V41.5282V41.4991V41.4702V41.4416V41.4132V41.3851V41.3572V41.3295V41.3021V41.275V41.2481V41.2214V41.195V41.1689V41.143V41.1174V41.092V41.0669V41.042V41.0174V40.993V40.9689V40.9451V40.9215V40.8982V40.8752V40.8524V40.8299V40.8077V40.7857V40.764V40.7426V40.7214V40.7005V40.6799V40.6596V40.6395V40.6197V40.6002V40.581V40.562V40.5433V40.5249V40.5068V40.489V40.4714V40.4542V40.4372V40.4205V40.4041V40.388V40.3722V40.3566V40.3414V40.3264V40.3118V40.3086C9.40263 40.2217 9.67699 40.1283 10.0185 40.06C10.8062 39.9025 11.5952 39.9442 12.0094 40.1512C12.0063 40.1497 12.0071 40.1503 12.0116 40.1539C12.031 40.1692 12.119 40.2385 12.2716 40.4269C12.4419 40.637 12.6388 40.9268 12.8545 41.2863C13.2848 42.0035 13.746 42.9235 14.1732 43.8633C14.5989 44.7998 14.9814 45.7352 15.2558 46.4739C15.3933 46.8441 15.5004 47.1564 15.5717 47.3899C15.6076 47.5074 15.6315 47.5954 15.6454 47.6557C15.6489 47.6707 15.6514 47.6822 15.653 47.6905C15.6552 47.7479 15.6629 47.8403 15.6906 47.9411C15.7069 48.0006 15.7635 48.1952 15.9394 48.3727C16.0395 48.4738 16.1851 48.5754 16.3774 48.6267C16.5705 48.6781 16.75 48.6626 16.8921 48.622C17.1408 48.5509 17.2881 48.4011 17.3316 48.3556C17.3922 48.2921 17.4326 48.2329 17.4537 48.2006C17.4969 48.134 17.5278 48.0707 17.545 48.034C17.611 47.8934 17.6901 47.6756 17.7662 47.4624C17.7996 47.3689 17.8356 47.2671 17.8742 47.158C18.0288 46.7207 18.2249 46.166 18.4633 45.5529C19.0776 43.9734 19.8866 42.2448 20.7689 41.3625C22.7431 39.3883 25.2066 38.1657 29.1327 38.1657C33.1638 38.1657 35.0533 38.8285 36.9472 40.0912C38.8779 41.3785 41.1203 44.0478 42.3069 45.4717C42.5545 45.7688 42.9561 45.8883 43.3258 45.775C43.6956 45.6616 43.9612 45.3375 43.9996 44.9527C44.231 42.6394 44.6126 39.1008 45.0054 36.0049C45.2019 34.4559 45.4001 33.0262 45.5828 31.919C45.6742 31.3645 45.7601 30.9011 45.8381 30.5485C45.8771 30.372 45.9123 30.232 45.9429 30.1269C45.9691 30.0368 45.9856 29.9948 45.9895 29.9848C45.9906 29.982 45.9907 29.9817 45.9898 29.9836C46.1453 29.6726 46.2391 29.2566 46.3057 28.8668C46.3773 28.4477 46.4344 27.9477 46.4792 27.4051C46.5688 26.3181 46.6128 25.0083 46.6128 23.7288C46.6128 22.4503 46.5689 21.1808 46.4786 20.1758C46.4336 19.6759 46.3754 19.2196 46.2997 18.8521C46.262 18.6694 46.2156 18.4865 46.1558 18.3216C46.1058 18.184 46.0071 17.9433 45.81 17.7461C44.8325 16.7686 43.7896 16.769 43.0802 16.7693L43.0444 16.7693C42.7491 16.7693 42.4888 16.871 42.3251 16.9457C42.1412 17.0297 41.9567 17.1382 41.7862 17.2479C41.4525 17.4624 41.0819 17.7404 40.747 17.9915L40.7469 17.9916L40.7294 18.0047C40.3733 18.2718 40.0555 18.5095 39.7864 18.6825C39.6577 18.7653 39.562 18.8188 39.4961 18.8496C39.4331 18.8406 39.3335 18.8207 39.1887 18.7812C38.9802 18.7244 38.7459 18.6465 38.4789 18.5575L38.4655 18.5531L38.4654 18.553C38.2141 18.4693 37.9321 18.3752 37.6671 18.303C37.4812 18.2523 37.2626 18.2003 37.0396 18.1755C37.0166 18.1327 36.9868 18.0748 36.9472 17.9957L36.9332 17.9676C36.8572 17.8148 36.7259 17.5511 36.5435 17.3322C36.323 17.0676 35.9463 16.7694 35.3931 16.7693C35.0689 16.7693 34.7814 16.8494 34.585 16.9108C34.4827 16.9428 34.4093 16.9675 34.3485 16.988C34.2617 17.0172 34.2004 17.0379 34.1168 17.0588C34.064 17.072 34.032 17.0764 34.015 17.0778C34.008 17.0722 33.998 17.0635 33.985 17.0505C33.9358 17.0013 33.8751 16.9222 33.7856 16.7836C33.7657 16.7529 33.7397 16.7114 33.7101 16.6641L33.7099 16.6637C33.6405 16.5529 33.5512 16.4103 33.4749 16.3008C33.2421 15.9664 32.7665 15.3782 31.9151 15.3782C31.2337 15.3782 30.9042 15.3609 30.5071 14.9638C30.2269 14.6836 29.9034 14.4988 29.6542 14.3683C29.5389 14.3079 29.4458 14.2616 29.364 14.2209L29.3639 14.2208L29.3639 14.2208C29.2349 14.1566 29.1339 14.1064 29.018 14.0369C28.8591 13.9415 28.7936 13.875 28.7621 13.8289C28.7412 13.7983 28.7015 13.7308 28.7015 13.5558C28.7015 12.8572 28.702 11.8515 28.7852 10.8532C28.8712 9.82127 29.0366 8.9389 29.2958 8.42047C29.6122 7.78769 30.1342 6.95535 30.7229 6.21202C31.3335 5.44101 31.9206 4.88817 32.3444 4.67628ZM39.4493 18.8694C39.4453 18.8706 39.4432 18.8713 39.4431 18.8714C39.4431 18.8715 39.4438 18.8713 39.4454 18.8708C39.4464 18.8705 39.4477 18.87 39.4493 18.8694ZM34.0278 17.0868C34.0281 17.087 34.0283 17.087 34.0282 17.087C34.0281 17.0868 34.0273 17.0863 34.0256 17.0855C34.0267 17.0862 34.0274 17.0866 34.0278 17.0868ZM37.0877 2.9069C34.8606 2.16453 33.1849 2.10934 31.4857 2.95899C30.6652 3.36927 29.8611 4.2076 29.2177 5.02001C28.5524 5.8601 27.9577 6.80344 27.5785 7.56182C27.1421 8.43456 26.9597 9.63895 26.8718 10.6938C26.7815 11.777 26.7815 12.8528 26.7815 13.5457V13.5457V13.5558C26.7815 14.0764 26.9158 14.5306 27.1775 14.9131C27.4285 15.28 27.7543 15.5177 28.0302 15.6832C28.2071 15.7894 28.4272 15.8997 28.596 15.9843L28.5961 15.9843C28.6613 16.017 28.7189 16.0458 28.7633 16.0691C28.9707 16.1777 29.0819 16.2538 29.1495 16.3214C30.1019 17.2738 31.1164 17.2978 31.824 17.2982C31.8422 17.3198 31.8671 17.3518 31.8992 17.3979C31.952 17.4737 31.9913 17.537 32.0413 17.6172L32.0413 17.6173C32.0769 17.6745 32.1178 17.7403 32.1728 17.8254C32.2815 17.9937 32.4307 18.2114 32.6274 18.4082C32.9235 18.7043 33.2676 18.8944 33.651 18.9663C34.0159 19.0347 34.3424 18.9815 34.5824 18.9215C34.7355 18.8832 34.9244 18.8204 35.052 18.778L35.052 18.778C35.0957 18.7635 35.1322 18.7514 35.1576 18.7434L35.1715 18.7391C35.1882 18.7714 35.2075 18.8095 35.2299 18.8543L35.2439 18.8824C35.32 19.0351 35.4512 19.2989 35.6337 19.5178C35.8542 19.7824 36.231 20.0806 36.7842 20.0805C36.8249 20.0805 36.9406 20.095 37.1619 20.1553C37.3704 20.2122 37.6047 20.29 37.8717 20.379L37.8852 20.3835L37.8853 20.3835C38.1366 20.4673 38.4185 20.5613 38.6835 20.6336C38.9403 20.7036 39.2594 20.7761 39.5665 20.7761C39.8618 20.7761 40.1221 20.6745 40.2858 20.5997C40.4697 20.5158 40.6541 20.4072 40.8247 20.2976C41.1584 20.083 41.5291 19.805 41.864 19.5538L41.8814 19.5407C42.2376 19.2736 42.5554 19.0359 42.8245 18.8629C42.9583 18.7769 43.0564 18.7225 43.1225 18.6923L43.1288 18.6895C43.7059 18.6913 44.0215 18.7187 44.3661 19.0225C44.3808 19.0712 44.3991 19.1422 44.4191 19.2395C44.4739 19.5051 44.5243 19.8802 44.5663 20.3476C44.6498 21.2772 44.6928 22.4857 44.6928 23.7288C44.6928 24.9707 44.6499 26.2259 44.5657 27.2473C44.5235 27.759 44.4719 28.1991 44.4131 28.5435C44.3837 28.7156 44.3541 28.8543 44.3258 28.9606C44.3117 29.0133 44.2992 29.0537 44.2887 29.0834C44.279 29.111 44.2731 29.1236 44.2725 29.1249C44.2725 29.1251 44.2724 29.1251 44.2725 29.125C44.1423 29.3854 44.0441 29.7691 43.9634 30.1339C43.8747 30.5348 43.7824 31.0365 43.6884 31.6065C43.5 32.7484 43.2983 34.2054 43.1006 35.7633C42.8171 37.9979 42.5398 40.4577 42.3199 42.5276C41.0953 41.1409 39.5044 39.4885 38.0123 38.4937C35.7327 36.9739 33.4486 36.2457 29.1327 36.2457C24.7118 36.2457 21.7556 37.6605 19.4113 40.0048C18.2113 41.2048 17.2838 43.2908 16.6806 44.8398C16.4547 44.2801 16.1963 43.6742 15.9211 43.0688C15.4788 42.0957 14.9836 41.1029 14.5009 40.2985C14.2601 39.8972 14.0114 39.5241 13.7632 39.2179C13.5333 38.9343 13.2319 38.6158 12.868 38.4339C11.891 37.9454 10.5933 37.9871 9.64197 38.1773C9.14679 38.2764 8.65787 38.4322 8.26652 38.6429C8.07296 38.7472 7.86157 38.8869 7.68639 39.0742C7.51472 39.2577 7.30518 39.568 7.30518 39.9882V39.9916V39.9953V39.9994V40.0038V40.0086V40.0136V40.019V40.0247V40.0307V40.0371V40.0438V40.0508V40.0581V40.0657V40.0736V40.0819V40.0905V40.0994V40.1086V40.1181V40.1279V40.138V40.1485V40.1592V40.1703V40.1816V40.1933V40.2052V40.2175V40.2301V40.243V40.2561V40.2696V40.2834V40.2974V40.3118V40.3264V40.3414V40.3566V40.3722V40.388V40.4041V40.4205V40.4372V40.4542V40.4714V40.489V40.5068V40.5249V40.5433V40.562V40.581V40.6002V40.6197V40.6395V40.6596V40.6799V40.7005V40.7214V40.7426V40.764V40.7857V40.8077V40.8299V40.8524V40.8752V40.8982V40.9215V40.9451V40.9689V40.993V41.0174V41.042V41.0669V41.092V41.1174V41.143V41.1689V41.195V41.2214V41.2481V41.275V41.3021V41.3295V41.3572V41.3851V41.4132V41.4416V41.4702V41.4991V41.5282V41.5575V41.5871V41.617V41.647V41.6773V41.7079V41.7386V41.7696V41.8009V41.8324V41.8641V41.896V41.9282V41.9605V41.9932V42.026V42.0591V42.0924V42.1259V42.1596V42.1936V42.2277V42.2621V42.2968V42.3316V42.3666V42.4019V42.4374V42.4731V42.509V42.5451V42.5814V42.6179V42.6547V42.6916V42.7288V42.7661V42.8037V42.8415V42.8794V42.9176V42.956V42.9946V43.0333V43.0723V43.1115V43.1508V43.1904V43.2301V43.2701V43.3102V43.3505V43.391V43.4317V43.4726V43.5137V43.5549V43.5964V43.638V43.6798V43.7218V43.764V43.8064V43.8489V43.8916V43.9345V43.9775V44.0208V44.0642V44.1078V44.1515V44.1955V44.2395V44.2838V44.3282V44.3728V44.4176V44.4625V44.5076V44.5529V44.5983V44.6439V44.6896V44.7355V44.7816V44.8278V44.8742V44.9207V44.9674V45.0142V45.0612V45.1084V45.1556V45.2031V45.2507V45.2984V45.3463V45.3943V45.4425V45.4908V45.5392V45.5878V45.6366V45.6855V45.7345V45.7836V45.8329V45.8823V45.9319V45.9816V46.0314V46.0814V46.1315V46.1817V46.232V46.2825V46.3331V46.3838V46.4347V46.4856V46.5367V46.588V46.6393V46.6908V46.7423V46.794V46.8459V46.8978V46.9498V47.002V47.0543V47.1066V47.1591V47.2117V47.2645V47.3173V47.3702V47.4232V47.4764V47.5296V47.583V47.6364V47.69V47.7436V47.7974V47.8512V47.9051V47.9592V48.0133V48.0676V48.1219V48.1763V48.2308V48.2854V48.3401V48.3949V48.4497V48.5047V48.5597V48.6148V48.67V48.7253V48.7807V48.8361V48.8916V48.9472V49.0029V49.0587V49.1145V49.1704V49.2264V49.2825V49.3386V49.3948V49.4511V49.5074V49.5638V49.6203V49.6768V49.7334V49.7901V49.8468V49.9036V49.9604V50.0173V50.0743V50.1313V50.1884V50.2456V50.3028V50.36V50.4173V50.4747V50.5321V50.5895V50.647V50.7046V50.7622V50.8198V50.8775V50.9352V50.993V51.0508V51.1087V51.1666V51.2245V51.2825V51.3405V51.3986V51.4567V51.5148V51.573V51.6311V51.6894V51.7476V51.8059V51.8642V51.9225V51.9809V52.0393V52.0977V52.1561V52.2146V52.2731V52.3316V52.3901V52.4486V52.5072V52.5657V52.6243V52.6829V52.7415V52.8002V52.8588V52.9175V52.9761V53.0348V53.0935V53.1522V53.2108V53.2695V53.3282V53.3869V53.4456V53.5043V53.5631V53.6218V53.6805V53.7392V53.7979V53.8565V53.9152V53.9739V54.0326V54.0912V54.1499V54.2085V54.2671V54.3258V54.3844V54.4429V54.5015V54.5601V54.6186V54.6771V54.7356V54.7941V54.8525V54.911V54.9694V55.0278V55.0861V55.1445V55.2028V55.261V55.3193V55.3775V55.4357V55.4938V55.5519V55.61V55.6681V55.7261V55.7841V55.842V55.8999V55.9577V56.0156V56.0733V56.1311V56.1887V56.2464V56.304V56.3615V56.419V56.4765V56.5339V56.5912V56.6485V56.7057V56.7629V56.8201V56.8771V56.9342V56.9911V57.048V57.1049V57.1616V57.2184V57.275V57.3316V57.3881V57.4446V57.501V57.5573V57.6136V57.6698V57.7259V57.7819V57.8379V57.8938V57.9496V58.0054V58.061V58.1166V58.1721V58.2276V58.2829V58.3382V58.3934V58.4485V58.5035V58.5585V58.6133V58.6681V58.7228V58.7773V58.8318V58.8862V58.9406V58.9948V59.0489V59.1029V59.1568V59.2107V59.2644V59.3181V59.3716V59.425V59.4784V59.5316V59.5847V59.6377V59.6906V59.7435V59.7961V59.8487V59.9012V59.9536V60.0058V60.058V60.11V60.1619V60.2137V60.2654V60.317V60.3684V60.4197V60.4709V60.522V60.573V60.6238V60.6745V60.7251V60.7756V60.8259V60.8761V60.9262V60.9761V61.0259V61.0756V61.1251V61.1745V61.2238V61.2729V61.3219V61.3708V61.4195V61.4681V61.5165V61.5648V61.613V61.661V61.7088V61.7565V61.8041V61.8515V61.8988V61.9459V61.9929V62.0397V62.0863V62.1329V62.1792V62.2254V62.2714V62.3173V62.363V62.4086V62.454V62.4992V62.5443V62.5892V62.634V62.6785V62.7229V62.7672V62.8113V62.8552V62.8989V62.9425C7.30518 63.306 7.51058 63.6384 7.83576 63.8011C7.98749 63.8769 8.14668 63.9174 8.2555 63.9413C8.37933 63.9685 8.51703 63.9905 8.66018 64.0091C8.94717 64.0464 9.30584 64.0762 9.71632 64.1005C10.5399 64.1494 11.6277 64.1795 12.8826 64.1959C15.3955 64.2286 18.6228 64.2067 21.8421 64.1632C26.1014 64.1056 30.3247 64.0108 32.9115 63.9527C34.2543 63.9225 35.1561 63.9023 35.393 63.9023C37.5996 63.9023 43.2783 63.1843 48.9462 61.0588C51.8649 59.9643 54.7198 58.0529 56.9402 56.1255C58.0539 55.1588 59.0243 54.1739 59.7747 53.2647C60.5084 52.3757 61.0898 51.4903 61.3448 50.7253C62.1148 48.4152 62.0886 45.7508 61.3706 42.5596C60.3294 37.932 58.9398 31.2967 57.8099 25.7457C57.245 22.9709 56.7457 20.4697 56.3877 18.6286C56.2087 17.7076 56.0655 16.9543 55.9673 16.4155C55.9181 16.1454 55.881 15.9334 55.8564 15.7826C55.8437 15.7045 55.8368 15.6565 55.8331 15.6308C55.8307 15.6141 55.8297 15.6068 55.8293 15.6069C55.829 15.6069 55.829 15.6094 55.8291 15.6139C55.825 15.4034 55.7769 15.1942 55.7289 15.0253C55.6744 14.8337 55.5988 14.6229 55.509 14.4015C55.3292 13.9578 55.0734 13.4252 54.7582 12.8398C54.1268 11.6671 53.2314 10.2356 52.1594 8.80624C51.4819 7.90285 50.2408 7.16848 48.9221 6.56408C47.5617 5.94057 45.9504 5.38272 44.3683 4.89931C42.7821 4.41465 41.2002 3.99734 39.8935 3.6598C39.6799 3.6046 39.475 3.55188 39.2796 3.5016L39.2796 3.50159C38.2547 3.23787 37.4911 3.04136 37.0877 2.9069ZM31.786 17.2581C31.7859 17.258 31.7875 17.2591 31.7907 17.262C31.7876 17.2597 31.786 17.2583 31.786 17.2581ZM43.1678 18.674C43.1677 18.6741 43.1656 18.6749 43.1614 18.676C43.1657 18.6745 43.1678 18.6739 43.1678 18.674ZM44.3403 18.9509C44.3404 18.9505 44.3423 18.9542 44.3458 18.963C44.342 18.9555 44.3403 18.9512 44.3403 18.9509ZM28.6318 22.1829L26.9398 33.2349L32.0692 23.3002L28.6318 22.1829ZM16.8386 24.8474L22.6 34.4294L20.1964 23.51L16.8386 24.8474ZM18.6261 37.2495L8.62268 32.2555L10.7385 29.3252L18.6261 37.2495Z" fill="#212121"/>
</g>
<defs>
<clipPath id="clip0_4472_54934">
<rect width="64" height="64" fill="white" transform="translate(0.899902 0.251953)"/>
</clipPath>
</defs>
</svg>
