<svg width="65" height="65" viewBox="0 0 65 65" fill="none" xmlns="http://www.w3.org/2000/svg">
<path d="M27.6904 33.4061L31.8722 37.5879L38.8418 30.6183" stroke="#212121" stroke-width="1.92" stroke-linecap="round" stroke-linejoin="round"/>
<path d="M17.9336 50.1339H48.6" stroke="#212121" stroke-width="1.92" stroke-linecap="round" stroke-linejoin="round"/>
<path d="M17.9336 16.6793H48.6" stroke="#212121" stroke-width="1.92" stroke-linecap="round" stroke-linejoin="round"/>
<path d="M31.8721 11.1035H34.6599" stroke="#212121" stroke-width="1.92" stroke-linecap="round" stroke-linejoin="round"/>
<path d="M44.4182 5.52771H22.1154C19.8058 5.52771 17.9336 7.39996 17.9336 9.70949V57.103C17.9336 59.4126 19.8058 61.2848 22.1154 61.2848H44.4182C46.7278 61.2848 48.6 59.4126 48.6 57.103V9.70949C48.6 7.39996 46.7278 5.52771 44.4182 5.52771Z" stroke="#212121" stroke-width="1.92" stroke-linecap="round" stroke-linejoin="round"/>
<path d="M33.266 57.103C34.0358 57.103 34.6599 56.479 34.6599 55.7091C34.6599 54.9393 34.0358 54.3152 33.266 54.3152C32.4962 54.3152 31.8721 54.9393 31.8721 55.7091C31.8721 56.479 32.4962 57.103 33.266 57.103Z" fill="#212121"/>
</svg>
