<svg width="30" height="22" viewBox="0 0 30 22" fill="none" xmlns="http://www.w3.org/2000/svg">
<g id="Group 37403">
<path id="Vector" d="M29.3752 3.77954C29.0295 2.48797 28.0145 1.473 26.7229 1.12726C24.3818 0.5 15 0.5 15 0.5C15 0.5 5.61821 0.5 3.27955 1.12726C1.98798 1.473 0.973 2.48797 0.627264 3.77954C0 6.11818 0 11.0004 0 11.0004C0 11.0004 0 15.8827 0.627264 18.2214C0.973 19.5129 1.98798 20.5279 3.27955 20.8736C5.61821 21.5009 15 21.5009 15 21.5009C15 21.5009 24.3818 21.5009 26.7204 20.8736C28.012 20.5279 29.027 19.5129 29.3727 18.2214C30 15.8827 30 11.0004 30 11.0004C30 11.0004 30 6.11818 29.3727 3.77954H29.3752Z" fill="#FF0000"/>
<path id="Vector_2" d="M11.9995 15.5009L19.7959 11.0014L11.9995 6.50195V15.5009Z" fill="white"/>
</g>
</svg>
