<svg width="32" height="32" viewBox="0 0 32 32" fill="none" xmlns="http://www.w3.org/2000/svg">
<path d="M13.7218 13.2961V12.3713C13.4048 12.328 13.0826 12.3008 12.7537 12.3008C8.79266 12.3008 5.57031 15.5231 5.57031 19.4841C5.57031 21.9143 6.78496 24.0648 8.63711 25.3653C7.44116 24.0818 6.70761 22.3622 6.70761 20.4744C6.70761 16.5703 9.83901 13.3862 13.7218 13.2953V13.2961Z" fill="#25F4EE"/>
<path d="M13.8907 23.7568C15.6579 23.7568 17.0995 22.3508 17.1649 20.5998L17.1709 4.959H20.0286C19.9691 4.6377 19.9368 4.30705 19.9368 3.96875H16.0336L16.0276 19.6096C15.9622 21.3615 14.5206 22.7665 12.7534 22.7665C12.2043 22.7665 11.6867 22.6288 11.2319 22.3899C11.8286 23.2161 12.7968 23.7576 13.8916 23.7576L13.8907 23.7568Z" fill="#25F4EE"/>
<path d="M25.3668 10.268V9.39843C24.2771 9.39843 23.2614 9.07458 22.4097 8.51953C23.1679 9.38993 24.1981 10.0181 25.3668 10.268Z" fill="#25F4EE"/>
<path d="M22.4097 8.51878C21.5792 7.56508 21.0743 6.31983 21.0743 4.95898H20.0288C20.3042 6.44563 21.1865 7.72148 22.4097 8.51878Z" fill="#FE2C55"/>
<path d="M12.7537 16.204C10.9449 16.204 9.47266 17.6753 9.47266 19.485C9.47266 20.7447 10.1875 21.8395 11.2313 22.3886C10.842 21.8497 10.61 21.1892 10.61 20.4752C10.61 18.6664 12.0822 17.1942 13.891 17.1942C14.2284 17.1942 14.5523 17.2503 14.8591 17.3455V13.3616C14.5421 13.3182 14.2199 13.291 13.891 13.291C13.834 13.291 13.7779 13.2944 13.721 13.2953V16.3553C13.415 16.2592 13.0903 16.204 12.7528 16.204H12.7537Z" fill="#FE2C55"/>
<path d="M25.3669 10.2676V13.3012C23.3431 13.3012 21.468 12.6535 19.9371 11.5553V19.4867C19.9371 23.4477 16.7148 26.67 12.7538 26.67C11.2229 26.67 9.80341 26.1872 8.63721 25.3678C9.94961 26.7763 11.8188 27.6603 13.8919 27.6603C17.8529 27.6603 21.0753 24.4379 21.0753 20.4769V12.5456C22.6061 13.6446 24.4812 14.2915 26.5051 14.2915V10.3883C26.1149 10.3883 25.7341 10.3458 25.3678 10.2676H25.3669Z" fill="#FE2C55"/>
<path d="M19.9369 19.4863V11.555C21.4678 12.654 23.3429 13.3009 25.3667 13.3009V10.2672C24.198 10.0173 23.1678 9.38918 22.4096 8.51878C21.1864 7.72148 20.3041 6.44563 20.0287 4.95898H17.171L17.1651 20.5998C17.0996 22.3517 15.658 23.7567 13.8909 23.7567C12.7961 23.7567 11.8279 23.2161 11.2312 22.3891C10.1866 21.8391 9.47257 20.7452 9.47257 19.4855C9.47257 17.6767 10.9448 16.2045 12.7536 16.2045C13.091 16.2045 13.4149 16.2606 13.7217 16.3558V13.2958C9.83892 13.3867 6.70752 16.5708 6.70752 20.4749C6.70752 22.3636 7.44107 24.0823 8.63702 25.3658C9.80407 26.1852 11.2227 26.668 12.7536 26.668C16.7146 26.668 19.9369 23.4456 19.9369 19.4846V19.4863Z" fill="black"/>
</svg>
