<svg width="65" height="64" viewBox="0 0 65 64" fill="none" xmlns="http://www.w3.org/2000/svg">
<g clip-path="url(#clip0_4472_54942)">
<path d="M62.331 49.8298C64.9655 46.473 63.3219 41.8661 59.9095 41.2781L55.5665 40.528C45.0424 38.7084 35.3053 34.1293 29.1427 29.3232C26.5267 29.4899 24.5682 32.4069 23.2209 33.6107C18.1509 38.1389 11.9004 35.0229 11.8772 35.009C9.10379 33.5181 6.1174 34.0505 5.1173 36.8332C2.04294 45.3757 5.76088 51.9319 5.76088 51.9319L6.43687 53.2468C7.46938 55.2562 9.53439 56.5156 11.7939 56.5156H48.2047C53.6219 56.5156 58.8029 54.145 62.2292 49.9502C62.2616 49.9085 62.2986 49.8668 62.331 49.8252V49.8298Z" fill="white" stroke="#212121" stroke-width="1.92" stroke-miterlimit="10" stroke-linecap="round"/>
<path d="M36.3981 33.9585L33.6987 37.0792" stroke="#212121" stroke-width="1.92" stroke-miterlimit="10" stroke-linecap="round"/>
<path d="M40.0648 35.8477L37.3701 38.9683" stroke="#212121" stroke-width="1.92" stroke-miterlimit="10" stroke-linecap="round"/>
<path d="M44.3339 37.5601L41.6392 40.6807" stroke="#212121" stroke-width="1.92" stroke-miterlimit="10" stroke-linecap="round"/>
<path d="M5.76562 51.9367H48.765C48.765 51.9367 56.6547 51.8997 60.5532 47.0381" stroke="#212121" stroke-width="1.92" stroke-miterlimit="10" stroke-linecap="round"/>
<path d="M51.5242 36.8156C46.9404 29.1158 44.1809 20.8187 43.366 14.2301C41.3982 12.4985 37.9488 13.1745 36.1477 13.0726C29.3601 12.6883 27.1469 6.06732 27.1376 6.03954C26.2301 3.02537 23.7438 1.28909 21.0676 2.54847C12.8539 6.41458 10.8444 13.6791 10.8444 13.6791L10.3953 15.0867C9.70543 17.235 10.2749 19.5917 11.8723 21.1845L21.6279 30.94" stroke="#212121" stroke-width="1.92" stroke-miterlimit="10" stroke-linecap="round"/>
<path d="M45.2179 22.6328L41.1064 22.9338" stroke="#212121" stroke-width="1.92" stroke-miterlimit="10" stroke-linecap="round"/>
<path d="M46.4772 26.5596L42.3657 26.8605" stroke="#212121" stroke-width="1.92" stroke-miterlimit="10" stroke-linecap="round"/>
<path d="M48.2829 30.7915L44.1714 31.0925" stroke="#212121" stroke-width="1.92" stroke-miterlimit="10" stroke-linecap="round"/>
<path d="M10.8447 13.6836L25.147 27.9812" stroke="#212121" stroke-width="1.92" stroke-miterlimit="10" stroke-linecap="round"/>
</g>
<defs>
<clipPath id="clip0_4472_54942">
<rect width="64" height="64" fill="white" transform="translate(0.699707)"/>
</clipPath>
</defs>
</svg>
