<svg width="45" height="45" viewBox="0 0 45 45" fill="none" xmlns="http://www.w3.org/2000/svg">
<circle cx="22.5851" cy="22.5172" r="19.6464" stroke="#212121" stroke-width="1.44"/>
<path d="M16.6113 16.2579C16.6113 16.2579 16.7064 14.2213 18.8245 12.4698C20.0872 11.4243 21.5943 11.1256 22.9521 11.112C24.1876 11.0985 25.301 11.3021 25.9527 11.628C27.0796 12.1847 29.2928 13.5288 29.2928 16.4073C29.2928 19.4351 27.3648 20.8064 25.1652 22.3135C22.9656 23.8206 22.3682 25.4635 22.3682 27.1607" stroke="#212121" stroke-width="1.44" stroke-miterlimit="10" stroke-linecap="round"/>
<path d="M22.383 33.7594C22.994 33.7594 23.4828 33.2707 23.4828 32.6597C23.4828 32.0487 22.994 31.5599 22.383 31.5599C21.772 31.5599 21.2832 32.0487 21.2832 32.6597C21.2832 33.2707 21.772 33.7594 22.383 33.7594Z" fill="#212121" stroke="#212121" stroke-width="1.2"/>
</svg>
