<svg width="49" height="49" viewBox="0 0 49 49" fill="none" xmlns="http://www.w3.org/2000/svg">
<path d="M11.2955 9.30243C11.2955 9.30243 13.8537 17.3308 14.2881 23.1094C14.7225 28.888 9.37559 35.463 9.44799 41.1692" stroke="#231815" stroke-width="1.44137" stroke-linecap="round" stroke-linejoin="round"/>
<path d="M38.0841 9.30243C38.0841 9.30243 35.5259 17.3308 35.0915 23.1094C34.6571 28.888 40.004 35.463 39.9316 41.1692" stroke="#231815" stroke-width="1.44137" stroke-linecap="round" stroke-linejoin="round"/>
<path d="M38.1963 34.8489C38.1963 34.8489 32.273 37.7234 24.687 37.8119C17.1011 37.7261 11.1777 34.8489 11.1777 34.8489" stroke="#231815" stroke-width="1.44137" stroke-linecap="round" stroke-linejoin="round"/>
<path d="M24.6875 31.2852V33.0657" stroke="#231815" stroke-width="1.44137" stroke-linecap="round" stroke-linejoin="round"/>
<path d="M9.944 22.3026C7.22229 22.8335 6.5412 23.6326 6.14166 27.1909C6.11484 27.443 5.75016 27.443 5.72334 27.1909C5.3238 23.6326 4.64003 22.8335 1.921 22.3026C1.69039 22.257 1.69039 21.9325 1.921 21.887C4.64271 21.356 5.3238 20.5569 5.72334 16.9986C5.75016 16.7466 6.11484 16.7466 6.14166 16.9986C6.5412 20.5569 7.22497 21.356 9.944 21.887C10.1746 21.9325 10.1746 22.257 9.944 22.3026Z" stroke="#231815" stroke-width="1.44137" stroke-linecap="round" stroke-linejoin="round"/>
<path d="M45.1648 29.7193C43.2116 30.0963 42.7229 30.6639 42.4362 33.191C42.4169 33.37 42.1552 33.37 42.136 33.191C41.8492 30.6639 41.3585 30.0963 39.4073 29.7193C39.2418 29.6869 39.2418 29.4565 39.4073 29.4241C41.3605 29.047 41.8492 28.4795 42.136 25.9524C42.1552 25.7734 42.4169 25.7734 42.4362 25.9524C42.7229 28.4795 43.2136 29.047 45.1648 29.4241C45.3303 29.4565 45.3303 29.6869 45.1648 29.7193Z" stroke="#231815" stroke-width="1.44137" stroke-linecap="round" stroke-linejoin="round"/>
</svg>
