<svg width="65" height="65" viewBox="0 0 65 65" fill="none" xmlns="http://www.w3.org/2000/svg">
<g clip-path="url(#clip0_4472_55044)">
<path d="M40.3596 21.6424C38.9463 14.0957 31.5329 8.30908 22.5996 8.30908C12.5996 8.30908 4.59961 15.4691 4.59961 24.3091C4.62372 26.4003 5.08176 28.4636 5.94473 30.3686C6.8077 32.2736 8.0568 33.9786 9.61294 35.3757C9.53162 36.4552 9.23208 37.5068 8.73246 38.4671C8.23284 39.4274 7.54353 40.2763 6.70628 40.9624C9.62242 41.2765 12.5509 40.4921 14.9196 38.7624C15.897 39.1689 16.9045 39.4988 17.9329 39.7491" stroke="#212121" stroke-width="2.56" stroke-linecap="round" stroke-linejoin="round"/>
<path d="M39.9331 25.6423C49.9331 25.6423 57.9331 32.789 57.9331 41.6423C57.909 43.7335 57.451 45.7969 56.588 47.7019C55.725 49.6068 54.4759 51.3119 52.9198 52.709C53.0029 53.7861 53.3032 54.8352 53.8028 55.7931C54.3024 56.751 54.9907 57.5977 55.8264 58.2823C52.9116 58.6055 49.9814 57.8254 47.6131 56.0957C45.1801 57.1125 42.57 57.6381 39.9331 57.6423C29.9331 57.6423 21.9331 50.4557 21.9331 41.6423C21.9331 32.829 29.9331 25.6423 39.9331 25.6423Z" stroke="#212121" stroke-width="2.56" stroke-linecap="round" stroke-linejoin="round"/>
</g>
<defs>
<clipPath id="clip0_4472_55044">
<rect width="64" height="64" fill="white" transform="translate(0.600098 0.309082)"/>
</clipPath>
</defs>
</svg>
