<svg width="45" height="45" viewBox="0 0 45 45" fill="none" xmlns="http://www.w3.org/2000/svg">
<path d="M36.7363 22.6936H42.899" stroke="#111111" stroke-width="1.44" stroke-linecap="round"/>
<path d="M12.002 22.6936H32.9738" stroke="#111111" stroke-width="1.44" stroke-linecap="round"/>
<path d="M2.01758 22.6936H8.23936" stroke="#111111" stroke-width="1.44" stroke-linecap="round"/>
<path d="M4.56055 14.9105V30.4649" stroke="#111111" stroke-width="1.44" stroke-linecap="round"/>
<path d="M10.121 10.2974C11.1619 10.2974 12.0017 11.1372 12.0017 12.1781V33.1973C12.0017 34.2382 11.1619 35.078 10.121 35.078C9.08006 35.078 8.24023 34.2382 8.24023 33.1973V12.1781C8.24023 11.1372 9.08006 10.2974 10.121 10.2974Z" stroke="#111111" stroke-width="1.44"/>
<path d="M40.4238 14.9105V30.4649" stroke="#111111" stroke-width="1.44" stroke-linecap="round"/>
<path d="M34.8553 10.2974C33.8144 10.2974 32.9746 11.1372 32.9746 12.1781V33.1973C32.9746 34.2382 33.8144 35.078 34.8553 35.078C35.8962 35.078 36.7361 34.2382 36.7361 33.1973V12.1781C36.7361 11.1372 35.8962 10.2974 34.8553 10.2974Z" stroke="#111111" stroke-width="1.44"/>
</svg>
