<svg width="182" height="99" viewBox="0 0 182 99" fill="none" xmlns="http://www.w3.org/2000/svg">
<g clip-path="url(#clip0_1_5299)">
<path d="M182 0H0V99H182V0Z" fill="#000000"/>
<path d="M24.8118 49.7785C24.8118 60.4496 42.0921 71.1978 64.0087 77.0453C50.648 75.6187 13.9336 66.3742 13.9336 49.7785C13.9336 38.4305 38.6066 26.6456 55.1451 21.6378C40.284 28.4277 24.8118 38.649 24.8118 49.7785Z" fill="url(#paint0_linear_1_5299)"/>
<path d="M30.1523 49.7784C30.1523 66.1856 69.7412 78.7801 104.47 84.8589C68.5316 74.4492 41.1317 62.7714 41.1317 49.7784C41.1317 35.7745 57.94 23.2699 78.491 14.141C78.491 14.141 30.1523 28.539 30.1523 49.7784Z" fill="url(#paint1_linear_1_5299)"/>
<path d="M157.197 49.7785C157.197 60.4496 139.917 71.1978 118 77.0453C131.361 75.6187 168.075 66.3742 168.075 49.7785C168.075 38.4305 143.402 26.6456 126.864 21.6378C141.725 28.4277 157.197 38.649 157.197 49.7785Z" fill="url(#paint2_linear_1_5299)"/>
<path d="M152.223 49.7784C152.223 66.1856 112.634 78.7801 77.9048 84.8589C113.844 74.4492 141.248 62.7714 141.248 49.7784C141.248 35.7745 124.435 23.2699 103.884 14.141C103.884 14.141 152.223 28.539 152.223 49.7784Z" fill="url(#paint3_linear_1_5299)"/>
<path d="M92.5219 41.4592C92.6905 41.1893 92.7453 40.9622 92.6146 40.7652C92.484 40.5681 92.2732 40.5767 91.738 40.5681H88.4589C88.0645 40.535 87.6676 40.5861 87.2938 40.7181C86.92 40.8502 86.5775 41.0603 86.2883 41.3349C85.8916 41.8084 85.5598 42.3344 85.3021 42.8986L84.7205 42.74C84.9733 41.8833 85.1756 41.155 85.5213 39.797H96.1803L96.4121 40.1526C95.9906 40.838 89.8118 50.9479 88.5854 52.9399C88.4252 53.197 88.1133 53.6982 88.3409 54.0837C88.5011 54.3493 88.8804 54.4007 89.285 54.4007H92.3196C93.1109 54.4288 93.8917 54.2106 94.5576 53.7753C95.2092 53.2453 95.7061 52.5448 95.9948 51.749L96.5512 51.9032C96.214 53.0556 95.7799 54.4735 95.5312 55.189H84.5729L84.3411 54.8162C84.7247 54.1651 92.1046 42.1532 92.5219 41.4592ZM58.9938 40.5039C61.2065 40.5039 62.197 42.2174 62.197 44.0723C62.197 45.6359 61.7755 46.4413 61.1686 46.9254C60.5053 47.3752 59.713 47.5863 58.918 47.5251H57.7673C57.4428 47.5251 57.2826 47.3495 57.2826 46.9339V41.2364C57.2742 40.5381 57.7968 40.5039 58.9938 40.5039ZM57.2742 48.7974C57.2742 48.369 57.4344 48.2063 57.7589 48.2063H58.4838C58.9053 48.2063 59.0655 48.4419 59.3984 48.9516C60.1023 49.9926 61.0253 51.5905 61.6154 52.443C63.2296 54.7863 64.9871 55.3603 66.9091 55.3603C67.2452 55.3638 67.5805 55.3264 67.9079 55.2489V54.9062C67.3261 54.8759 66.7692 54.6567 66.319 54.2808C64.768 52.9399 63.3898 50.8537 61.569 47.855C61.451 47.6836 61.4931 47.6708 61.6744 47.6151C62.9388 47.2295 64.8944 46.1886 64.8944 43.7125C64.8944 41.7633 63.7649 40.868 62.5721 40.3111C61.4931 39.8099 60.1781 39.7842 58.7789 39.7842H53.1606V40.3582L53.7086 40.4396C54.6906 40.5938 54.8044 40.9922 54.8044 43.0099V51.9632C54.8044 53.9723 54.6906 54.2122 53.7086 54.4735L53.1606 54.6106V55.1847H58.9137V54.6106L58.37 54.4735C57.388 54.2122 57.2742 53.9723 57.2742 51.9632V48.7974V48.7974ZM73.8043 51.9546C73.8043 53.9638 73.6905 54.2037 72.7127 54.465L72.1648 54.6021V55.1761H78.0907V54.6021L77.5428 54.465C76.5608 54.2037 76.4512 53.9638 76.4512 51.9546V43.0142C76.4512 41.0051 76.5608 40.6067 77.5428 40.4439L78.0907 40.3625V39.8013H72.1648V40.3754L72.7127 40.4567C73.6905 40.611 73.8043 41.0094 73.8043 43.0271V51.9546ZM113.338 52.0832L109.212 39.8013H107.463C107.463 39.8013 102.717 52.3402 102.321 53.4026C102.245 53.655 102.103 53.8821 101.911 54.0599C101.719 54.2378 101.484 54.3599 101.23 54.4136C100.753 54.5335 100.205 54.6192 100.205 54.6192V55.1932H104.842V54.6192L104.323 54.5592C103.539 54.465 103.194 54.4864 103.615 53.2141C103.763 52.76 104.694 50.0098 104.799 49.7056C104.863 49.552 104.968 49.4198 105.102 49.3243C105.236 49.2288 105.394 49.1739 105.558 49.1658H109.107C109.27 49.1735 109.427 49.229 109.559 49.3256C109.691 49.4221 109.794 49.5556 109.853 49.7099L111.256 53.8867C111.286 53.9517 111.299 54.0232 111.294 54.0947C111.29 54.1662 111.268 54.2354 111.23 54.2959C111.192 54.3564 111.14 54.4064 111.078 54.4411C111.017 54.4759 110.948 54.4944 110.877 54.495L109.811 54.6192V55.1932H115.471V54.6192L114.797 54.4821C114.164 54.3664 113.996 54.0751 113.338 52.096V52.0832ZM107.303 42.6587C107.353 42.5216 107.429 42.5216 107.476 42.6587L109.162 47.7179C109.191 47.7792 109.203 47.8473 109.197 47.9151C109.192 47.9829 109.168 48.0479 109.13 48.1034C109.091 48.1589 109.038 48.2029 108.977 48.2308C108.916 48.2587 108.849 48.2694 108.782 48.2619H105.861C105.795 48.2691 105.728 48.2581 105.668 48.2299C105.607 48.2017 105.555 48.1575 105.517 48.1018C105.479 48.0461 105.457 47.9811 105.452 47.9136C105.447 47.846 105.461 47.7784 105.491 47.7179L107.303 42.6587ZM129.266 40.6966C128.208 40.0326 126.577 39.7885 124.701 39.7885H119.264V40.3625L119.812 40.4439C120.794 40.5981 120.908 40.9965 120.908 43.0142V51.9675C120.908 53.9766 120.794 54.2165 119.812 54.4778L119.264 54.6149V55.189H125.022V54.6149L124.474 54.4778C123.492 54.2165 123.382 53.9766 123.382 51.9675V49.5128C123.382 49.0845 123.542 48.9217 123.867 48.9217C124.082 48.9217 124.95 48.9217 125.485 48.896C126.702 48.8639 127.894 48.5473 128.971 47.9706C129.647 47.6575 130.224 47.1602 130.638 46.5339C131.053 45.9077 131.289 45.1769 131.32 44.4227C131.351 43.6685 131.176 42.9203 130.814 42.2611C130.452 41.6019 129.918 41.0574 129.27 40.6881L129.266 40.6966ZM125.527 48.0777C125.158 48.1409 124.785 48.1695 124.41 48.1634H123.863C123.538 48.1634 123.378 47.9878 123.378 47.5722V41.1465C123.378 40.5124 123.9 40.4782 125.089 40.4782C127.483 40.4782 128.596 41.9261 128.596 44.1794C128.596 46.2271 128.14 47.5894 125.527 48.0863V48.0777Z" fill="url(#paint4_linear_1_5299)"/>
<path d="M92.5219 41.4592C92.6905 41.1893 92.7453 40.9622 92.6146 40.7652C92.484 40.5681 92.2732 40.5767 91.738 40.5681H88.4589C88.0645 40.535 87.6676 40.5861 87.2938 40.7181C86.92 40.8502 86.5775 41.0603 86.2883 41.3349C85.8916 41.8084 85.5598 42.3344 85.3021 42.8986L84.7205 42.74C84.9733 41.8833 85.1756 41.155 85.5213 39.797H96.1803L96.4121 40.1526C95.9906 40.838 89.8118 50.9479 88.5854 52.9399C88.4252 53.197 88.1133 53.6982 88.3409 54.0837C88.5011 54.3493 88.8804 54.4007 89.285 54.4007H92.3196C93.1109 54.4288 93.8917 54.2106 94.5576 53.7753C95.2092 53.2453 95.7061 52.5448 95.9948 51.749L96.5512 51.9032C96.214 53.0556 95.7799 54.4735 95.5312 55.189H84.5729L84.3411 54.8162C84.7247 54.1651 92.1046 42.1532 92.5219 41.4592ZM58.9938 40.5039C61.2065 40.5039 62.197 42.2174 62.197 44.0723C62.197 45.6359 61.7755 46.4413 61.1686 46.9254C60.5053 47.3752 59.713 47.5863 58.918 47.5251H57.7673C57.4428 47.5251 57.2826 47.3495 57.2826 46.9339V41.2364C57.2742 40.5381 57.7968 40.5039 58.9938 40.5039ZM57.2742 48.7974C57.2742 48.369 57.4344 48.2063 57.7589 48.2063H58.4838C58.9053 48.2063 59.0655 48.4419 59.3984 48.9516C60.1023 49.9926 61.0253 51.5905 61.6154 52.443C63.2296 54.7863 64.9871 55.3603 66.9091 55.3603C67.2452 55.3638 67.5805 55.3264 67.9079 55.2489V54.9062C67.3261 54.8759 66.7692 54.6567 66.319 54.2808C64.768 52.9399 63.3898 50.8537 61.569 47.855C61.451 47.6836 61.4931 47.6708 61.6744 47.6151C62.9388 47.2295 64.8944 46.1886 64.8944 43.7125C64.8944 41.7633 63.7649 40.868 62.5721 40.3111C61.4931 39.8099 60.1781 39.7842 58.7789 39.7842H53.1606V40.3582L53.7086 40.4396C54.6906 40.5938 54.8044 40.9922 54.8044 43.0099V51.9632C54.8044 53.9723 54.6906 54.2122 53.7086 54.4735L53.1606 54.6106V55.1847H58.9137V54.6106L58.37 54.4735C57.388 54.2122 57.2742 53.9723 57.2742 51.9632V48.7974V48.7974ZM73.8043 51.9546C73.8043 53.9638 73.6905 54.2037 72.7127 54.465L72.1648 54.6021V55.1761H78.0907V54.6021L77.5428 54.465C76.5608 54.2037 76.4512 53.9638 76.4512 51.9546V43.0142C76.4512 41.0051 76.5608 40.6067 77.5428 40.4439L78.0907 40.3625V39.8013H72.1648V40.3754L72.7127 40.4567C73.6905 40.611 73.8043 41.0094 73.8043 43.0271V51.9546ZM113.338 52.0832L109.212 39.8013H107.463C107.463 39.8013 102.717 52.3402 102.321 53.4026C102.245 53.655 102.103 53.8821 101.911 54.0599C101.719 54.2378 101.484 54.3599 101.23 54.4136C100.753 54.5335 100.205 54.6192 100.205 54.6192V55.1932H104.842V54.6192L104.323 54.5592C103.539 54.465 103.194 54.4864 103.615 53.2141C103.763 52.76 104.694 50.0098 104.799 49.7056C104.863 49.552 104.968 49.4198 105.102 49.3243C105.236 49.2288 105.394 49.1739 105.558 49.1658H109.107C109.27 49.1735 109.427 49.229 109.559 49.3256C109.691 49.4221 109.794 49.5556 109.853 49.7099L111.256 53.8867C111.286 53.9517 111.299 54.0232 111.294 54.0947C111.29 54.1662 111.268 54.2354 111.23 54.2959C111.192 54.3564 111.14 54.4064 111.078 54.4411C111.017 54.4759 110.948 54.4944 110.877 54.495L109.811 54.6192V55.1932H115.471V54.6192L114.797 54.4821C114.164 54.3664 113.996 54.0751 113.338 52.096V52.0832ZM107.303 42.6587C107.353 42.5216 107.429 42.5216 107.476 42.6587L109.162 47.7179C109.191 47.7792 109.203 47.8473 109.197 47.9151C109.192 47.9829 109.168 48.0479 109.13 48.1034C109.091 48.1589 109.038 48.2029 108.977 48.2308C108.916 48.2587 108.849 48.2694 108.782 48.2619H105.861C105.795 48.2691 105.728 48.2581 105.668 48.2299C105.607 48.2017 105.555 48.1575 105.517 48.1018C105.479 48.0461 105.457 47.9811 105.452 47.9136C105.447 47.846 105.461 47.7784 105.491 47.7179L107.303 42.6587ZM129.266 40.6966C128.208 40.0326 126.577 39.7885 124.701 39.7885H119.264V40.3625L119.812 40.4439C120.794 40.5981 120.908 40.9965 120.908 43.0142V51.9675C120.908 53.9766 120.794 54.2165 119.812 54.4778L119.264 54.6149V55.189H125.022V54.6149L124.474 54.4778C123.492 54.2165 123.382 53.9766 123.382 51.9675V49.5128C123.382 49.0845 123.542 48.9217 123.867 48.9217C124.082 48.9217 124.95 48.9217 125.485 48.896C126.702 48.8639 127.894 48.5473 128.971 47.9706C129.647 47.6575 130.224 47.1602 130.638 46.5339C131.053 45.9077 131.289 45.1769 131.32 44.4227C131.351 43.6685 131.176 42.9203 130.814 42.2611C130.452 41.6019 129.918 41.0574 129.27 40.6881L129.266 40.6966ZM125.527 48.0777C125.158 48.1409 124.785 48.1695 124.41 48.1634H123.863C123.538 48.1634 123.378 47.9878 123.378 47.5722V41.1465C123.378 40.5124 123.9 40.4782 125.089 40.4782C127.483 40.4782 128.596 41.9261 128.596 44.1794C128.596 46.2271 128.14 47.5894 125.527 48.0863V48.0777Z" fill="url(#paint5_linear_1_5299)"/>
</g>
<defs>
<linearGradient id="paint0_linear_1_5299" x1="38.9606" y1="77.0453" x2="38.9606" y2="21.6378" gradientUnits="userSpaceOnUse">
<stop stop-color="#9D6F30"/>
<stop offset="0.11" stop-color="#A57830"/>
<stop offset="0.29" stop-color="#B9902F"/>
<stop offset="0.5" stop-color="#D8B52D"/>
<stop offset="0.52" stop-color="#D4B02D"/>
<stop offset="0.64" stop-color="#BC932E"/>
<stop offset="0.76" stop-color="#AB7F2F"/>
<stop offset="0.88" stop-color="#A07230"/>
<stop offset="1" stop-color="#9D6E30"/>
</linearGradient>
<linearGradient id="paint1_linear_1_5299" x1="67.3093" y1="84.8589" x2="67.3093" y2="14.141" gradientUnits="userSpaceOnUse">
<stop stop-color="#9D6F30"/>
<stop offset="0.11" stop-color="#A57830"/>
<stop offset="0.29" stop-color="#B9902F"/>
<stop offset="0.5" stop-color="#D8B52D"/>
<stop offset="0.52" stop-color="#D4B02D"/>
<stop offset="0.64" stop-color="#BC932E"/>
<stop offset="0.76" stop-color="#AB7F2F"/>
<stop offset="0.88" stop-color="#A07230"/>
<stop offset="1" stop-color="#9D6E30"/>
</linearGradient>
<linearGradient id="paint2_linear_1_5299" x1="143.044" y1="77.0453" x2="143.044" y2="21.6378" gradientUnits="userSpaceOnUse">
<stop stop-color="#9D6F30"/>
<stop offset="0.11" stop-color="#A57830"/>
<stop offset="0.29" stop-color="#B9902F"/>
<stop offset="0.5" stop-color="#D8B52D"/>
<stop offset="0.52" stop-color="#D4B02D"/>
<stop offset="0.64" stop-color="#BC932E"/>
<stop offset="0.76" stop-color="#AB7F2F"/>
<stop offset="0.88" stop-color="#A07230"/>
<stop offset="1" stop-color="#9D6E30"/>
</linearGradient>
<linearGradient id="paint3_linear_1_5299" x1="115.062" y1="84.8589" x2="115.062" y2="14.141" gradientUnits="userSpaceOnUse">
<stop stop-color="#9D6F30"/>
<stop offset="0.11" stop-color="#A57830"/>
<stop offset="0.29" stop-color="#B9902F"/>
<stop offset="0.5" stop-color="#D8B52D"/>
<stop offset="0.52" stop-color="#D4B02D"/>
<stop offset="0.64" stop-color="#BC932E"/>
<stop offset="0.76" stop-color="#AB7F2F"/>
<stop offset="0.88" stop-color="#A07230"/>
<stop offset="1" stop-color="#9D6E30"/>
</linearGradient>
<linearGradient id="paint4_linear_1_5299" x1="92.2311" y1="55.3732" x2="92.2311" y2="39.797" gradientUnits="userSpaceOnUse">
<stop stop-color="#AE812C"/>
<stop offset="0.3" stop-color="#B88C29"/>
<stop offset="1" stop-color="#D8B52D"/>
</linearGradient>
<linearGradient id="paint5_linear_1_5299" x1="92.2311" y1="55.3732" x2="92.2311" y2="39.797" gradientUnits="userSpaceOnUse">
<stop stop-color="#AE812C"/>
<stop offset="0.29" stop-color="#B88C29"/>
<stop offset="1" stop-color="#D8B52D"/>
</linearGradient>
<clipPath id="clip0_1_5299">
<rect width="182" height="99" fill="white"/>
</clipPath>
</defs>
</svg>
