<svg width="201" height="108" viewBox="0 0 201 108" fill="none" xmlns="http://www.w3.org/2000/svg">
<g clip-path="url(#clip0_1_4141)">
<path d="M201 0H0V108H201V0Z" fill="#212121"/>
<path d="M27.402 54.3039C27.402 65.9451 46.4864 77.6704 70.6909 84.0495C55.9354 82.4933 15.3882 72.4083 15.3882 54.3039C15.3882 41.9243 42.6369 29.0681 60.902 23.605C44.4895 31.0122 27.402 42.1627 27.402 54.3039Z" fill="url(#paint0_linear_1_4141)"/>
<path d="M33.2998 54.304C33.2998 72.2027 77.0216 85.9422 115.376 92.5736C75.6857 81.2175 45.4253 68.4781 45.4253 54.304C45.4253 39.0269 63.9884 25.3856 86.6848 15.4268C86.6848 15.4268 33.2998 31.1337 33.2998 54.304Z" fill="url(#paint1_linear_1_4141)"/>
<path d="M173.607 54.3039C173.607 65.9451 154.522 77.6704 130.318 84.0495C145.073 82.4933 185.621 72.4083 185.621 54.3039C185.621 41.9243 158.372 29.0681 140.107 23.605C156.519 31.0122 173.607 42.1627 173.607 54.3039Z" fill="url(#paint2_linear_1_4141)"/>
<path d="M168.115 54.304C168.115 72.2027 124.393 85.9422 86.0381 92.5736C125.729 81.2175 155.994 68.4781 155.994 54.304C155.994 39.0269 137.426 25.3856 114.73 15.4268C114.73 15.4268 168.115 31.1337 168.115 54.304Z" fill="url(#paint3_linear_1_4141)"/>
<path d="M102.18 45.2281C102.367 44.9337 102.427 44.686 102.283 44.4711C102.138 44.2561 101.906 44.2654 101.315 44.2561H97.6932C97.2576 44.2199 96.8193 44.2757 96.4065 44.4197C95.9936 44.5638 95.6154 44.793 95.296 45.0926C94.8578 45.6092 94.4914 46.183 94.2068 46.7984L93.5645 46.6255C93.8438 45.6908 94.0672 44.8963 94.4489 43.4149H106.221L106.477 43.8028C106.011 44.5505 99.1874 55.5795 97.8328 57.7526C97.656 58.033 97.3115 58.5798 97.5629 59.0004C97.7398 59.2901 98.1587 59.3462 98.6055 59.3462H101.957C102.831 59.3769 103.693 59.1388 104.429 58.6639C105.148 58.0858 105.697 57.3215 106.016 56.4534L106.63 56.6217C106.258 57.8788 105.778 59.4256 105.504 60.2061H93.4016L93.1456 59.7995C93.5691 59.0892 101.72 45.9852 102.18 45.2281ZM65.1521 44.186C67.5958 44.186 68.6897 46.0553 68.6897 48.0789C68.6897 49.7846 68.2242 50.6632 67.5539 51.1913C66.8214 51.6819 65.9464 51.9123 65.0683 51.8455H63.7976C63.4391 51.8455 63.2623 51.6539 63.2623 51.2006V44.9851C63.253 44.2234 63.8301 44.186 65.1521 44.186ZM63.253 53.2335C63.253 52.7662 63.4298 52.5886 63.7883 52.5886H64.5889C65.0543 52.5886 65.2312 52.8456 65.5989 53.4017C66.3763 54.5374 67.3957 56.2805 68.0473 57.2105C69.8301 59.7668 71.7711 60.393 73.8936 60.393C74.2649 60.3968 74.6352 60.356 74.9968 60.2715V59.8976C74.3542 59.8646 73.7392 59.6254 73.242 59.2153C71.5291 57.7526 70.0069 55.4767 67.9961 52.2054C67.8658 52.0184 67.9123 52.0044 68.1125 51.9437C69.5089 51.5231 71.6687 50.3875 71.6687 47.6863C71.6687 45.56 70.4212 44.5832 69.1039 43.9757C67.9123 43.4289 66.4601 43.4009 64.9147 43.4009H58.71V44.0271L59.3151 44.1159C60.3996 44.2841 60.5253 44.7187 60.5253 46.9199V56.6871C60.5253 58.8789 60.3996 59.1406 59.3151 59.4256L58.71 59.5752V60.2014H65.0636V59.5752L64.4632 59.4256C63.3786 59.1406 63.253 58.8789 63.253 56.6871V53.2335V53.2335ZM81.5088 56.6777C81.5088 58.8695 81.3831 59.1312 80.3032 59.4163L79.6981 59.5658V60.1921H86.2426V59.5658L85.6375 59.4163C84.5529 59.1312 84.4319 58.8695 84.4319 56.6777V46.9246C84.4319 44.7328 84.5529 44.2982 85.6375 44.1206L86.2426 44.0318V43.4196H79.6981V44.0458L80.3032 44.1346C81.3831 44.3028 81.5088 44.7374 81.5088 46.9386V56.6777ZM125.17 56.8179L120.613 43.4196H118.681C118.681 43.4196 113.44 57.0983 113.003 58.2573C112.918 58.5327 112.762 58.7804 112.55 58.9744C112.338 59.1684 112.078 59.3017 111.797 59.3602C111.271 59.4911 110.666 59.5845 110.666 59.5845V60.2107H115.786V59.5845L115.214 59.5191C114.348 59.4163 113.966 59.4397 114.432 58.0517C114.594 57.5563 115.623 54.5561 115.74 54.2242C115.81 54.0567 115.925 53.9125 116.074 53.8083C116.222 53.7041 116.397 53.6442 116.577 53.6354H120.497C120.676 53.6438 120.85 53.7043 120.996 53.8097C121.142 53.915 121.255 54.0606 121.321 54.2289L122.871 58.7854C122.903 58.8563 122.918 58.9344 122.913 59.0124C122.908 59.0904 122.883 59.1658 122.841 59.2319C122.8 59.2979 122.742 59.3524 122.674 59.3903C122.606 59.4282 122.53 59.4484 122.452 59.449L121.274 59.5845V60.2107H127.525V59.5845L126.781 59.435C126.082 59.3088 125.896 58.991 125.17 56.832V56.8179ZM118.504 46.5367C118.56 46.3871 118.644 46.3871 118.695 46.5367L120.557 52.0558C120.589 52.1227 120.603 52.197 120.597 52.271C120.59 52.3449 120.565 52.4159 120.522 52.4764C120.479 52.537 120.421 52.585 120.353 52.6154C120.286 52.6458 120.212 52.6575 120.138 52.6493H116.913C116.839 52.6572 116.765 52.6451 116.699 52.6144C116.632 52.5837 116.574 52.5354 116.532 52.4747C116.49 52.4139 116.466 52.343 116.46 52.2693C116.455 52.1956 116.47 52.1219 116.503 52.0558L118.504 46.5367ZM142.76 44.3963C141.592 43.6719 139.79 43.4056 137.719 43.4056H131.715V44.0318L132.32 44.1206C133.404 44.2888 133.53 44.7234 133.53 46.9246V56.6918C133.53 58.8835 133.404 59.1452 132.32 59.4303L131.715 59.5798V60.2061H138.073V59.5798L137.468 59.4303C136.383 59.1452 136.262 58.8835 136.262 56.6918V54.014C136.262 53.5466 136.439 53.369 136.797 53.369C137.035 53.369 137.994 53.369 138.585 53.341C139.928 53.3061 141.246 52.9606 142.434 52.3316C143.181 51.9899 143.818 51.4474 144.276 50.7642C144.734 50.081 144.994 49.2839 145.029 48.4611C145.063 47.6384 144.869 46.8221 144.47 46.103C144.07 45.3839 143.48 44.7899 142.765 44.387L142.76 44.3963ZM138.631 52.4484C138.224 52.5173 137.811 52.5485 137.398 52.5419H136.793C136.434 52.5419 136.258 52.3503 136.258 51.897V44.887C136.258 44.1954 136.835 44.158 138.147 44.158C140.791 44.158 142.02 45.7375 142.02 48.1957C142.02 50.4295 141.517 51.9156 138.631 52.4577V52.4484Z" fill="url(#paint4_linear_1_4141)"/>
<path d="M102.18 45.2281C102.367 44.9337 102.427 44.686 102.283 44.4711C102.138 44.2561 101.906 44.2654 101.315 44.2561H97.6932C97.2576 44.2199 96.8193 44.2757 96.4065 44.4197C95.9936 44.5638 95.6154 44.793 95.296 45.0926C94.8578 45.6092 94.4914 46.183 94.2068 46.7984L93.5645 46.6255C93.8438 45.6908 94.0672 44.8963 94.4489 43.4149H106.221L106.477 43.8028C106.011 44.5505 99.1874 55.5795 97.8328 57.7526C97.656 58.033 97.3115 58.5798 97.5629 59.0004C97.7398 59.2901 98.1587 59.3462 98.6055 59.3462H101.957C102.831 59.3769 103.693 59.1388 104.429 58.6639C105.148 58.0858 105.697 57.3215 106.016 56.4534L106.63 56.6217C106.258 57.8788 105.778 59.4256 105.504 60.2061H93.4016L93.1456 59.7995C93.5691 59.0892 101.72 45.9852 102.18 45.2281ZM65.1521 44.186C67.5958 44.186 68.6897 46.0553 68.6897 48.0789C68.6897 49.7846 68.2242 50.6632 67.5539 51.1913C66.8214 51.6819 65.9464 51.9123 65.0683 51.8455H63.7976C63.4391 51.8455 63.2623 51.6539 63.2623 51.2006V44.9851C63.253 44.2234 63.8301 44.186 65.1521 44.186ZM63.253 53.2335C63.253 52.7662 63.4298 52.5886 63.7883 52.5886H64.5889C65.0543 52.5886 65.2312 52.8456 65.5989 53.4017C66.3763 54.5374 67.3957 56.2805 68.0473 57.2105C69.8301 59.7668 71.7711 60.393 73.8936 60.393C74.2649 60.3968 74.6352 60.356 74.9968 60.2715V59.8976C74.3542 59.8646 73.7392 59.6254 73.242 59.2153C71.5291 57.7526 70.0069 55.4767 67.9961 52.2054C67.8658 52.0184 67.9123 52.0044 68.1125 51.9437C69.5089 51.5231 71.6687 50.3875 71.6687 47.6863C71.6687 45.56 70.4212 44.5832 69.1039 43.9757C67.9123 43.4289 66.4601 43.4009 64.9147 43.4009H58.71V44.0271L59.3151 44.1159C60.3996 44.2841 60.5253 44.7187 60.5253 46.9199V56.6871C60.5253 58.8789 60.3996 59.1406 59.3151 59.4256L58.71 59.5752V60.2014H65.0636V59.5752L64.4632 59.4256C63.3786 59.1406 63.253 58.8789 63.253 56.6871V53.2335V53.2335ZM81.5088 56.6777C81.5088 58.8695 81.3831 59.1312 80.3032 59.4163L79.6981 59.5658V60.1921H86.2426V59.5658L85.6375 59.4163C84.5529 59.1312 84.4319 58.8695 84.4319 56.6777V46.9246C84.4319 44.7328 84.5529 44.2982 85.6375 44.1206L86.2426 44.0318V43.4196H79.6981V44.0458L80.3032 44.1346C81.3831 44.3028 81.5088 44.7374 81.5088 46.9386V56.6777ZM125.17 56.8179L120.613 43.4196H118.681C118.681 43.4196 113.44 57.0983 113.003 58.2573C112.918 58.5327 112.762 58.7804 112.55 58.9744C112.338 59.1684 112.078 59.3017 111.797 59.3602C111.271 59.4911 110.666 59.5845 110.666 59.5845V60.2107H115.786V59.5845L115.214 59.5191C114.348 59.4163 113.966 59.4397 114.432 58.0517C114.594 57.5563 115.623 54.5561 115.74 54.2242C115.81 54.0567 115.925 53.9125 116.074 53.8083C116.222 53.7041 116.397 53.6442 116.577 53.6354H120.497C120.676 53.6438 120.85 53.7043 120.996 53.8097C121.142 53.915 121.255 54.0606 121.321 54.2289L122.871 58.7854C122.903 58.8563 122.918 58.9344 122.913 59.0124C122.908 59.0904 122.883 59.1658 122.841 59.2319C122.8 59.2979 122.742 59.3524 122.674 59.3903C122.606 59.4282 122.53 59.4484 122.452 59.449L121.274 59.5845V60.2107H127.525V59.5845L126.781 59.435C126.082 59.3088 125.896 58.991 125.17 56.832V56.8179ZM118.504 46.5367C118.56 46.3871 118.644 46.3871 118.695 46.5367L120.557 52.0558C120.589 52.1227 120.603 52.197 120.597 52.271C120.59 52.3449 120.565 52.4159 120.522 52.4764C120.479 52.537 120.421 52.585 120.353 52.6154C120.286 52.6458 120.212 52.6575 120.138 52.6493H116.913C116.839 52.6572 116.765 52.6451 116.699 52.6144C116.632 52.5837 116.574 52.5354 116.532 52.4747C116.49 52.4139 116.466 52.343 116.46 52.2693C116.455 52.1956 116.47 52.1219 116.503 52.0558L118.504 46.5367ZM142.76 44.3963C141.592 43.6719 139.79 43.4056 137.719 43.4056H131.715V44.0318L132.32 44.1206C133.404 44.2888 133.53 44.7234 133.53 46.9246V56.6918C133.53 58.8835 133.404 59.1452 132.32 59.4303L131.715 59.5798V60.2061H138.073V59.5798L137.468 59.4303C136.383 59.1452 136.262 58.8835 136.262 56.6918V54.014C136.262 53.5466 136.439 53.369 136.797 53.369C137.035 53.369 137.994 53.369 138.585 53.341C139.928 53.3061 141.246 52.9606 142.434 52.3316C143.181 51.9899 143.818 51.4474 144.276 50.7642C144.734 50.081 144.994 49.2839 145.029 48.4611C145.063 47.6384 144.869 46.8221 144.47 46.103C144.07 45.3839 143.48 44.7899 142.765 44.387L142.76 44.3963ZM138.631 52.4484C138.224 52.5173 137.811 52.5485 137.398 52.5419H136.793C136.434 52.5419 136.258 52.3503 136.258 51.897V44.887C136.258 44.1954 136.835 44.158 138.147 44.158C140.791 44.158 142.02 45.7375 142.02 48.1957C142.02 50.4295 141.517 51.9156 138.631 52.4577V52.4484Z" fill="url(#paint5_linear_1_4141)"/>
</g>
<defs>
<linearGradient id="paint0_linear_1_4141" x1="43.0279" y1="84.0495" x2="43.0279" y2="23.605" gradientUnits="userSpaceOnUse">
<stop stop-color="#9D6F30"/>
<stop offset="0.11" stop-color="#A57830"/>
<stop offset="0.29" stop-color="#B9902F"/>
<stop offset="0.5" stop-color="#D8B52D"/>
<stop offset="0.52" stop-color="#D4B02D"/>
<stop offset="0.64" stop-color="#BC932E"/>
<stop offset="0.76" stop-color="#AB7F2F"/>
<stop offset="0.88" stop-color="#A07230"/>
<stop offset="1" stop-color="#9D6E30"/>
</linearGradient>
<linearGradient id="paint1_linear_1_4141" x1="74.3358" y1="92.5736" x2="74.3358" y2="15.4268" gradientUnits="userSpaceOnUse">
<stop stop-color="#9D6F30"/>
<stop offset="0.11" stop-color="#A57830"/>
<stop offset="0.29" stop-color="#B9902F"/>
<stop offset="0.5" stop-color="#D8B52D"/>
<stop offset="0.52" stop-color="#D4B02D"/>
<stop offset="0.64" stop-color="#BC932E"/>
<stop offset="0.76" stop-color="#AB7F2F"/>
<stop offset="0.88" stop-color="#A07230"/>
<stop offset="1" stop-color="#9D6E30"/>
</linearGradient>
<linearGradient id="paint2_linear_1_4141" x1="157.976" y1="84.0495" x2="157.976" y2="23.605" gradientUnits="userSpaceOnUse">
<stop stop-color="#9D6F30"/>
<stop offset="0.11" stop-color="#A57830"/>
<stop offset="0.29" stop-color="#B9902F"/>
<stop offset="0.5" stop-color="#D8B52D"/>
<stop offset="0.52" stop-color="#D4B02D"/>
<stop offset="0.64" stop-color="#BC932E"/>
<stop offset="0.76" stop-color="#AB7F2F"/>
<stop offset="0.88" stop-color="#A07230"/>
<stop offset="1" stop-color="#9D6E30"/>
</linearGradient>
<linearGradient id="paint3_linear_1_4141" x1="127.074" y1="92.5736" x2="127.074" y2="15.4268" gradientUnits="userSpaceOnUse">
<stop stop-color="#9D6F30"/>
<stop offset="0.11" stop-color="#A57830"/>
<stop offset="0.29" stop-color="#B9902F"/>
<stop offset="0.5" stop-color="#D8B52D"/>
<stop offset="0.52" stop-color="#D4B02D"/>
<stop offset="0.64" stop-color="#BC932E"/>
<stop offset="0.76" stop-color="#AB7F2F"/>
<stop offset="0.88" stop-color="#A07230"/>
<stop offset="1" stop-color="#9D6E30"/>
</linearGradient>
<linearGradient id="paint4_linear_1_4141" x1="101.859" y1="60.407" x2="101.859" y2="43.4149" gradientUnits="userSpaceOnUse">
<stop stop-color="#AE812C"/>
<stop offset="0.3" stop-color="#B88C29"/>
<stop offset="1" stop-color="#D8B52D"/>
</linearGradient>
<linearGradient id="paint5_linear_1_4141" x1="101.859" y1="60.407" x2="101.859" y2="43.4149" gradientUnits="userSpaceOnUse">
<stop stop-color="#AE812C"/>
<stop offset="0.29" stop-color="#B88C29"/>
<stop offset="1" stop-color="#D8B52D"/>
</linearGradient>
<clipPath id="clip0_1_4141">
<rect width="201" height="108" fill="white"/>
</clipPath>
</defs>
</svg>
