<svg width="108" height="70" viewBox="0 0 108 70" fill="none" xmlns="http://www.w3.org/2000/svg">
<rect width="108" height="70" fill="#111111"/>
<g clip-path="url(#clip0_1_4972)">
<path d="M108 6H0V64H108V6Z" fill="#111111"/>
<path d="M14.7237 35.1632C14.7237 41.415 24.978 47.7119 37.9834 51.1377C30.0551 50.3019 8.26855 44.8859 8.26855 35.1632C8.26855 28.5149 22.9097 21.6106 32.7237 18.6768C23.9051 22.6547 14.7237 28.6429 14.7237 35.1632Z" fill="url(#paint0_linear_1_4972)"/>
<path d="M17.8926 35.1632C17.8926 44.7754 41.3849 52.1541 61.9935 55.7154C40.6671 49.6167 24.4078 42.7752 24.4078 35.1632C24.4078 26.9588 34.382 19.6329 46.577 14.2847C46.577 14.2847 17.8926 22.7199 17.8926 35.1632Z" fill="url(#paint1_linear_1_4972)"/>
<path d="M93.2812 35.1632C93.2812 41.415 83.0269 47.7119 70.0215 51.1377C77.9498 50.3019 99.7364 44.8859 99.7364 35.1632C99.7364 28.5149 85.0953 21.6106 75.2812 18.6768C84.0999 22.6547 93.2812 28.6429 93.2812 35.1632Z" fill="url(#paint2_linear_1_4972)"/>
<path d="M90.3304 35.1632C90.3304 44.7754 66.8381 52.1541 46.2295 55.7154C67.5559 49.6167 83.8176 42.7752 83.8176 35.1632C83.8176 26.9588 73.841 19.6329 61.6459 14.2847C61.6459 14.2847 90.3304 22.7199 90.3304 35.1632Z" fill="url(#paint3_linear_1_4972)"/>
<path d="M54.9026 30.2892C55.0027 30.1311 55.0352 29.998 54.9577 29.8826C54.8801 29.7671 54.7551 29.7722 54.4374 29.7671H52.4916C52.2576 29.7477 52.0221 29.7777 51.8003 29.855C51.5784 29.9324 51.3752 30.0555 51.2036 30.2164C50.9682 30.4938 50.7713 30.802 50.6184 31.1324L50.2732 31.0396C50.4233 30.5376 50.5433 30.111 50.7484 29.3154H57.0735L57.2111 29.5237C56.961 29.9253 53.2945 35.8482 52.5667 37.0153C52.4716 37.1658 52.2865 37.4595 52.4216 37.6854C52.5166 37.841 52.7417 37.8711 52.9818 37.8711H54.7826C55.2521 37.8876 55.7155 37.7597 56.1106 37.5047C56.4973 37.1942 56.7921 36.7838 56.9635 36.3176L57.2936 36.4079C57.0935 37.083 56.8359 37.9138 56.6884 38.3329H50.1857L50.0481 38.1145C50.2757 37.733 54.655 30.6957 54.9026 30.2892ZM35.0069 29.7295C36.3199 29.7295 36.9076 30.7334 36.9076 31.8201C36.9076 32.7362 36.6575 33.208 36.2974 33.4916C35.9038 33.7551 35.4336 33.8788 34.9618 33.843H34.279C34.0865 33.843 33.9914 33.7401 33.9914 33.4966V30.1587C33.9864 29.7496 34.2966 29.7295 35.0069 29.7295ZM33.9864 34.5883C33.9864 34.3374 34.0815 34.242 34.274 34.242H34.7042C34.9543 34.242 35.0494 34.38 35.2469 34.6787C35.6646 35.2886 36.2124 36.2247 36.5625 36.7241C37.5204 38.097 38.5633 38.4333 39.7038 38.4333C39.9033 38.4353 40.1023 38.4134 40.2966 38.368V38.1672C39.9513 38.1495 39.6208 38.021 39.3537 37.8008C38.4333 37.0153 37.6154 35.793 36.535 34.0362C36.465 33.9358 36.49 33.9283 36.5975 33.8957C37.3478 33.6698 38.5083 33.0599 38.5083 31.6093C38.5083 30.4674 37.838 29.9428 37.1302 29.6166C36.49 29.3229 35.7096 29.3079 34.8793 29.3079H31.5454V29.6442L31.8705 29.6919C32.4533 29.7822 32.5208 30.0156 32.5208 31.1977V36.443C32.5208 37.6201 32.4533 37.7607 31.8705 37.9137L31.5454 37.9941V38.3304H34.9593V37.9941L34.6367 37.9137C34.054 37.7607 33.9864 37.6201 33.9864 36.443V34.5883V34.5883ZM43.7955 36.438C43.7955 37.6151 43.728 37.7556 43.1477 37.9087L42.8226 37.989V38.3253H46.3391V37.989L46.0139 37.9087C45.4312 37.7556 45.3662 37.6151 45.3662 36.438V31.2002C45.3662 30.0231 45.4312 29.7897 46.0139 29.6944L46.3391 29.6467V29.3179H42.8226V29.6542L43.1477 29.7019C43.728 29.7922 43.7955 30.0256 43.7955 31.2077V36.438ZM67.2553 36.5133L64.8068 29.3179H63.7688C63.7688 29.3179 60.9527 36.6639 60.7176 37.2863C60.6724 37.4342 60.5884 37.5672 60.4745 37.6714C60.3605 37.7756 60.2207 37.8472 60.0698 37.8786C59.7872 37.9489 59.462 37.9991 59.462 37.9991V38.3354H62.2132V37.9991L61.9056 37.9639C61.4404 37.9087 61.2353 37.9213 61.4854 37.1759C61.5729 36.9099 62.1256 35.2986 62.1882 35.1204C62.2258 35.0304 62.2881 34.953 62.3677 34.897C62.4474 34.8411 62.5412 34.8089 62.6384 34.8042H64.7442C64.8408 34.8087 64.9341 34.8412 65.0126 34.8978C65.0912 34.9543 65.1517 35.0325 65.1869 35.1229L66.0198 37.5699C66.0373 37.608 66.0451 37.6499 66.0424 37.6918C66.0396 37.7337 66.0264 37.7742 66.004 37.8097C65.9816 37.8451 65.9507 37.8744 65.9142 37.8948C65.8776 37.9151 65.8365 37.926 65.7947 37.9263L65.1619 37.9991V38.3354H68.5208V37.9991L68.1206 37.9188C67.7455 37.851 67.6454 37.6803 67.2553 36.5208V36.5133ZM63.6738 30.9919C63.7038 30.9116 63.7488 30.9116 63.7763 30.9919L64.7767 33.9559C64.7939 33.9918 64.8013 34.0317 64.7979 34.0714C64.7946 34.1112 64.7807 34.1492 64.7577 34.1818C64.7348 34.2143 64.7035 34.24 64.6673 34.2564C64.6311 34.2727 64.5911 34.279 64.5517 34.2746H62.8184C62.7791 34.2789 62.7394 34.2724 62.7034 34.2559C62.6675 34.2393 62.6366 34.2134 62.6141 34.1808C62.5916 34.1482 62.5782 34.1101 62.5755 34.0705C62.5727 34.0309 62.5806 33.9914 62.5983 33.9559L63.6738 30.9919ZM76.7067 29.8424C76.079 29.4534 75.1111 29.3104 73.9981 29.3104H70.7717V29.6467L71.0969 29.6944C71.6796 29.7847 71.7472 30.0181 71.7472 31.2002V36.4456C71.7472 37.6226 71.6796 37.7632 71.0969 37.9163L70.7717 37.9966V38.3329H74.1882V37.9966L73.863 37.9163C73.2803 37.7632 73.2153 37.6226 73.2153 36.4456V35.0075C73.2153 34.7565 73.3103 34.6611 73.5029 34.6611C73.6304 34.6611 74.1457 34.6611 74.4633 34.6461C75.1851 34.6273 75.8929 34.4418 76.5316 34.104C76.9326 33.9205 77.2751 33.6291 77.5212 33.2623C77.7672 32.8954 77.9072 32.4672 77.9256 32.0254C77.944 31.5835 77.8401 31.1452 77.6254 30.759C77.4107 30.3728 77.0936 30.0538 76.7092 29.8374L76.7067 29.8424ZM74.4883 34.1667C74.2694 34.2037 74.0475 34.2205 73.8255 34.2169H73.5004C73.3078 34.2169 73.2128 34.114 73.2128 33.8706V30.106C73.2128 29.7345 73.5229 29.7144 74.2282 29.7144C75.6488 29.7144 76.3091 30.5627 76.3091 31.8829C76.3091 33.0825 76.0389 33.8806 74.4883 34.1717V34.1667Z" fill="url(#paint4_linear_1_4972)"/>
<path d="M54.9026 30.2892C55.0027 30.1311 55.0352 29.998 54.9577 29.8826C54.8801 29.7671 54.7551 29.7722 54.4374 29.7671H52.4916C52.2576 29.7477 52.0221 29.7777 51.8003 29.855C51.5784 29.9324 51.3752 30.0555 51.2036 30.2164C50.9682 30.4938 50.7713 30.802 50.6184 31.1324L50.2732 31.0396C50.4233 30.5376 50.5433 30.111 50.7484 29.3154H57.0735L57.2111 29.5237C56.961 29.9253 53.2945 35.8482 52.5667 37.0153C52.4716 37.1658 52.2865 37.4595 52.4216 37.6854C52.5166 37.841 52.7417 37.8711 52.9818 37.8711H54.7826C55.2521 37.8876 55.7155 37.7597 56.1106 37.5047C56.4973 37.1942 56.7921 36.7838 56.9635 36.3176L57.2936 36.4079C57.0935 37.083 56.8359 37.9138 56.6884 38.3329H50.1857L50.0481 38.1145C50.2757 37.733 54.655 30.6957 54.9026 30.2892ZM35.0069 29.7295C36.3199 29.7295 36.9076 30.7334 36.9076 31.8201C36.9076 32.7362 36.6575 33.208 36.2974 33.4916C35.9038 33.7551 35.4336 33.8788 34.9618 33.843H34.279C34.0865 33.843 33.9914 33.7401 33.9914 33.4966V30.1587C33.9864 29.7496 34.2966 29.7295 35.0069 29.7295ZM33.9864 34.5883C33.9864 34.3374 34.0815 34.242 34.274 34.242H34.7042C34.9543 34.242 35.0494 34.38 35.2469 34.6787C35.6646 35.2886 36.2124 36.2247 36.5625 36.7241C37.5204 38.097 38.5633 38.4333 39.7038 38.4333C39.9033 38.4353 40.1023 38.4134 40.2966 38.368V38.1672C39.9513 38.1495 39.6208 38.021 39.3537 37.8008C38.4333 37.0153 37.6154 35.793 36.535 34.0362C36.465 33.9358 36.49 33.9283 36.5975 33.8957C37.3478 33.6698 38.5083 33.0599 38.5083 31.6093C38.5083 30.4674 37.838 29.9428 37.1302 29.6166C36.49 29.3229 35.7096 29.3079 34.8793 29.3079H31.5454V29.6442L31.8705 29.6919C32.4533 29.7822 32.5208 30.0156 32.5208 31.1977V36.443C32.5208 37.6201 32.4533 37.7607 31.8705 37.9137L31.5454 37.9941V38.3304H34.9593V37.9941L34.6367 37.9137C34.054 37.7607 33.9864 37.6201 33.9864 36.443V34.5883V34.5883ZM43.7955 36.438C43.7955 37.6151 43.728 37.7556 43.1477 37.9087L42.8226 37.989V38.3253H46.3391V37.989L46.0139 37.9087C45.4312 37.7556 45.3662 37.6151 45.3662 36.438V31.2002C45.3662 30.0231 45.4312 29.7897 46.0139 29.6944L46.3391 29.6467V29.3179H42.8226V29.6542L43.1477 29.7019C43.728 29.7922 43.7955 30.0256 43.7955 31.2077V36.438ZM67.2553 36.5133L64.8068 29.3179H63.7688C63.7688 29.3179 60.9527 36.6639 60.7176 37.2863C60.6724 37.4342 60.5884 37.5672 60.4745 37.6714C60.3605 37.7756 60.2207 37.8472 60.0698 37.8786C59.7872 37.9489 59.462 37.9991 59.462 37.9991V38.3354H62.2132V37.9991L61.9056 37.9639C61.4404 37.9087 61.2353 37.9213 61.4854 37.1759C61.5729 36.9099 62.1256 35.2986 62.1882 35.1204C62.2258 35.0304 62.2881 34.953 62.3677 34.897C62.4474 34.8411 62.5412 34.8089 62.6384 34.8042H64.7442C64.8408 34.8087 64.9341 34.8412 65.0126 34.8978C65.0912 34.9543 65.1517 35.0325 65.1869 35.1229L66.0198 37.5699C66.0373 37.608 66.0451 37.6499 66.0424 37.6918C66.0396 37.7337 66.0264 37.7742 66.004 37.8097C65.9816 37.8451 65.9507 37.8744 65.9142 37.8948C65.8776 37.9151 65.8365 37.926 65.7947 37.9263L65.1619 37.9991V38.3354H68.5208V37.9991L68.1206 37.9188C67.7455 37.851 67.6454 37.6803 67.2553 36.5208V36.5133ZM63.6738 30.9919C63.7038 30.9116 63.7488 30.9116 63.7763 30.9919L64.7767 33.9559C64.7939 33.9918 64.8013 34.0317 64.7979 34.0714C64.7946 34.1112 64.7807 34.1492 64.7577 34.1818C64.7348 34.2143 64.7035 34.24 64.6673 34.2564C64.6311 34.2727 64.5911 34.279 64.5517 34.2746H62.8184C62.7791 34.2789 62.7394 34.2724 62.7034 34.2559C62.6675 34.2393 62.6366 34.2134 62.6141 34.1808C62.5916 34.1482 62.5782 34.1101 62.5755 34.0705C62.5727 34.0309 62.5806 33.9914 62.5983 33.9559L63.6738 30.9919ZM76.7067 29.8424C76.079 29.4534 75.1111 29.3104 73.9981 29.3104H70.7717V29.6467L71.0969 29.6944C71.6796 29.7847 71.7472 30.0181 71.7472 31.2002V36.4456C71.7472 37.6226 71.6796 37.7632 71.0969 37.9163L70.7717 37.9966V38.3329H74.1882V37.9966L73.863 37.9163C73.2803 37.7632 73.2153 37.6226 73.2153 36.4456V35.0075C73.2153 34.7565 73.3103 34.6611 73.5029 34.6611C73.6304 34.6611 74.1457 34.6611 74.4633 34.6461C75.1851 34.6273 75.8929 34.4418 76.5316 34.104C76.9326 33.9205 77.2751 33.6291 77.5212 33.2623C77.7672 32.8954 77.9072 32.4672 77.9256 32.0254C77.944 31.5835 77.8401 31.1452 77.6254 30.759C77.4107 30.3728 77.0936 30.0538 76.7092 29.8374L76.7067 29.8424ZM74.4883 34.1667C74.2694 34.2037 74.0475 34.2205 73.8255 34.2169H73.5004C73.3078 34.2169 73.2128 34.114 73.2128 33.8706V30.106C73.2128 29.7345 73.5229 29.7144 74.2282 29.7144C75.6488 29.7144 76.3091 30.5627 76.3091 31.8829C76.3091 33.0825 76.0389 33.8806 74.4883 34.1717V34.1667Z" fill="url(#paint5_linear_1_4972)"/>
</g>
<defs>
<linearGradient id="paint0_linear_1_4972" x1="23.1197" y1="51.1377" x2="23.1197" y2="18.6768" gradientUnits="userSpaceOnUse">
<stop stop-color="#9D6F30"/>
<stop offset="0.11" stop-color="#A57830"/>
<stop offset="0.29" stop-color="#B9902F"/>
<stop offset="0.5" stop-color="#D8B52D"/>
<stop offset="0.52" stop-color="#D4B02D"/>
<stop offset="0.64" stop-color="#BC932E"/>
<stop offset="0.76" stop-color="#AB7F2F"/>
<stop offset="0.88" stop-color="#A07230"/>
<stop offset="1" stop-color="#9D6E30"/>
</linearGradient>
<linearGradient id="paint1_linear_1_4972" x1="39.9418" y1="55.7154" x2="39.9418" y2="14.2847" gradientUnits="userSpaceOnUse">
<stop stop-color="#9D6F30"/>
<stop offset="0.11" stop-color="#A57830"/>
<stop offset="0.29" stop-color="#B9902F"/>
<stop offset="0.5" stop-color="#D8B52D"/>
<stop offset="0.52" stop-color="#D4B02D"/>
<stop offset="0.64" stop-color="#BC932E"/>
<stop offset="0.76" stop-color="#AB7F2F"/>
<stop offset="0.88" stop-color="#A07230"/>
<stop offset="1" stop-color="#9D6E30"/>
</linearGradient>
<linearGradient id="paint2_linear_1_4972" x1="84.8827" y1="51.1377" x2="84.8827" y2="18.6768" gradientUnits="userSpaceOnUse">
<stop stop-color="#9D6F30"/>
<stop offset="0.11" stop-color="#A57830"/>
<stop offset="0.29" stop-color="#B9902F"/>
<stop offset="0.5" stop-color="#D8B52D"/>
<stop offset="0.52" stop-color="#D4B02D"/>
<stop offset="0.64" stop-color="#BC932E"/>
<stop offset="0.76" stop-color="#AB7F2F"/>
<stop offset="0.88" stop-color="#A07230"/>
<stop offset="1" stop-color="#9D6E30"/>
</linearGradient>
<linearGradient id="paint3_linear_1_4972" x1="68.2787" y1="55.7154" x2="68.2787" y2="14.2847" gradientUnits="userSpaceOnUse">
<stop stop-color="#9D6F30"/>
<stop offset="0.11" stop-color="#A57830"/>
<stop offset="0.29" stop-color="#B9902F"/>
<stop offset="0.5" stop-color="#D8B52D"/>
<stop offset="0.52" stop-color="#D4B02D"/>
<stop offset="0.64" stop-color="#BC932E"/>
<stop offset="0.76" stop-color="#AB7F2F"/>
<stop offset="0.88" stop-color="#A07230"/>
<stop offset="1" stop-color="#9D6E30"/>
</linearGradient>
<linearGradient id="paint4_linear_1_4972" x1="54.7301" y1="38.4408" x2="54.7301" y2="29.3154" gradientUnits="userSpaceOnUse">
<stop stop-color="#AE812C"/>
<stop offset="0.3" stop-color="#B88C29"/>
<stop offset="1" stop-color="#D8B52D"/>
</linearGradient>
<linearGradient id="paint5_linear_1_4972" x1="54.7301" y1="38.4408" x2="54.7301" y2="29.3154" gradientUnits="userSpaceOnUse">
<stop stop-color="#AE812C"/>
<stop offset="0.29" stop-color="#B88C29"/>
<stop offset="1" stop-color="#D8B52D"/>
</linearGradient>
<clipPath id="clip0_1_4972">
<rect width="108" height="58" fill="white" transform="translate(0 6)"/>
</clipPath>
</defs>
</svg>
