<svg width="48" height="48" viewBox="0 0 48 48" fill="none" xmlns="http://www.w3.org/2000/svg">
<circle cx="24" cy="24" r="24" fill="white"/>
<path d="M22.1777 21.8373V21.0975C21.9241 21.0628 21.6663 21.041 21.4032 21.041C18.2344 21.041 15.6565 23.6189 15.6565 26.7877C15.6565 28.7318 16.6282 30.4522 18.1099 31.4926C17.1532 30.4658 16.5663 29.0902 16.5663 27.5799C16.5663 24.4567 19.0715 21.9094 22.1777 21.8366V21.8373Z" fill="#25F4EE"/>
<path d="M22.3131 30.2054C23.7268 30.2054 24.8801 29.0807 24.9324 27.6799L24.9372 15.1672H27.2234C27.1758 14.9102 27.1499 14.6456 27.1499 14.375H24.0274L24.0226 26.8877C23.9702 28.2892 22.817 29.4132 21.4032 29.4132C20.964 29.4132 20.5498 29.303 20.186 29.112C20.6634 29.7729 21.4379 30.2061 22.3138 30.2061L22.3131 30.2054Z" fill="#25F4EE"/>
<path d="M31.4937 19.4144V18.7187C30.6219 18.7187 29.8093 18.4597 29.1279 18.0156C29.7345 18.7119 30.5587 19.2145 31.4937 19.4144Z" fill="#25F4EE"/>
<path d="M29.1281 18.0158C28.4637 17.2528 28.0598 16.2566 28.0598 15.168H27.2234C27.4437 16.3573 28.1495 17.378 29.1281 18.0158Z" fill="#FE2C55"/>
<path d="M21.4031 24.1624C19.9561 24.1624 18.7783 25.3395 18.7783 26.7872C18.7783 27.795 19.3502 28.6708 20.1852 29.1101C19.8738 28.679 19.6882 28.1506 19.6882 27.5794C19.6882 26.1324 20.8659 24.9546 22.313 24.9546C22.5829 24.9546 22.842 24.9995 23.0875 25.0756V21.8885C22.8338 21.8538 22.5761 21.832 22.313 21.832C22.2674 21.832 22.2225 21.8348 22.177 21.8354V24.2834C21.9322 24.2066 21.6724 24.1624 21.4024 24.1624H21.4031Z" fill="#FE2C55"/>
<path d="M31.4939 19.4141V21.841C29.8748 21.841 28.3747 21.3228 27.15 20.4443V26.7893C27.15 29.9581 24.5721 32.536 21.4033 32.536C20.1787 32.536 19.0431 32.1498 18.1101 31.4943C19.16 32.621 20.6553 33.3282 22.3139 33.3282C25.4827 33.3282 28.0605 30.7503 28.0605 27.5815V21.2365C29.2852 22.1157 30.7853 22.6332 32.4044 22.6332V19.5106C32.0923 19.5106 31.7876 19.4766 31.4945 19.4141H31.4939Z" fill="#FE2C55"/>
<path d="M27.1497 26.7898V20.4448C28.3744 21.324 29.8744 21.8415 31.4935 21.8415V19.4146C30.5585 19.2146 29.7344 18.7121 29.1278 18.0158C28.1493 17.378 27.4434 16.3573 27.2231 15.168H24.937L24.9322 27.6806C24.8798 29.0821 23.7266 30.2062 22.3128 30.2062C21.437 30.2062 20.6625 29.7737 20.1851 29.112C19.3494 28.6721 18.7782 27.7969 18.7782 26.7892C18.7782 25.3421 19.956 24.1644 21.403 24.1644C21.673 24.1644 21.932 24.2092 22.1775 24.2854V21.8374C19.0713 21.9102 16.5662 24.4574 16.5662 27.5807C16.5662 29.0916 17.153 30.4666 18.1098 31.4934C19.0434 32.1489 20.1783 32.5352 21.403 32.5352C24.5718 32.5352 27.1497 29.9573 27.1497 26.7885V26.7898Z" fill="black"/>
</svg>
