<svg width="48" height="48" viewBox="0 0 48 48" fill="none" xmlns="http://www.w3.org/2000/svg">
<circle cx="24" cy="24" r="24" fill="white"/>
<path d="M35.3009 18.2237C35.0244 17.1905 34.2124 16.3785 33.1791 16.1019C31.3062 15.6001 23.8008 15.6001 23.8008 15.6001C23.8008 15.6001 16.2953 15.6001 14.4244 16.1019C13.3912 16.3785 12.5792 17.1905 12.3026 18.2237C11.8008 20.0946 11.8008 24.0005 11.8008 24.0005C11.8008 24.0005 11.8008 27.9063 12.3026 29.7772C12.5792 30.8104 13.3912 31.6224 14.4244 31.899C16.2953 32.4008 23.8008 32.4008 23.8008 32.4008C23.8008 32.4008 31.3062 32.4008 33.1771 31.899C34.2104 31.6224 35.0224 30.8104 35.299 29.7772C35.8008 27.9063 35.8008 24.0005 35.8008 24.0005C35.8008 24.0005 35.8008 20.0946 35.299 18.2237H35.3009Z" fill="#FF0000"/>
<path d="M21.4004 27.6001L27.6375 24.0005L21.4004 20.4009V27.6001Z" fill="white"/>
</svg>
